<svg width="237" height="232" viewBox="0 0 237 232" fill="none" xmlns="http://www.w3.org/2000/svg">
<g clip-path="url(#clip0_39_264)">
<path d="M236.857 116.099C236.47 116.779 236.294 117.541 235.825 118.197C233.95 120.835 229.448 121.245 227.338 118.924C226.588 118.104 226.166 117.084 226.049 116.005C225.838 114.188 225.756 112.348 225.58 110.531C225.51 109.827 225.756 109.499 226.459 109.417C229.378 109.03 232.297 108.632 235.216 108.233C236.107 108.104 236.47 108.468 236.47 109.37C236.47 110.578 236.517 111.785 236.845 112.957V116.099H236.857ZM234.477 113.743C234.477 113.379 234.454 113.028 234.477 112.664C234.536 111.75 234.137 111.469 233.235 111.621C231.722 111.879 230.199 112.066 228.675 112.266C228.206 112.324 227.983 112.582 227.995 113.051C228.018 114.036 228.112 115.009 228.417 115.947C228.604 116.533 229.061 116.955 229.636 117.142C232.215 118.033 234.501 116.427 234.477 113.743Z" fill="#FD0100"/>
<path d="M236.857 127.106C235.181 127.142 233.528 126.837 231.875 126.661C231.219 126.591 230.574 126.532 229.917 126.532C228.558 126.532 228.007 127.13 227.913 128.642C227.807 130.201 228.3 131.033 229.554 131.209C231.535 131.491 233.516 131.737 235.509 131.924C236.33 132.006 236.599 132.37 236.494 133.132C236.447 133.46 236.482 133.788 236.47 134.116C236.447 134.749 236.154 135.078 235.474 135.019C233.129 134.785 230.761 134.632 228.464 134.128C226.94 133.8 226.084 132.721 225.814 131.186C225.521 129.545 225.603 127.927 226.026 126.321C226.588 124.176 227.936 123.179 230.14 123.379C232.391 123.59 234.63 123.906 236.869 124.164V127.118L236.857 127.106Z" fill="#FD0100"/>
<path d="M0.673096 112.36C0.860655 111.305 1.00132 110.226 1.27094 109.183C1.79845 107.096 3.93194 106.065 5.80753 106.991C7.26111 107.706 7.76517 109.054 7.80034 110.566C7.82379 111.645 7.76517 112.723 7.67139 113.802C7.62451 114.388 7.82379 114.669 8.37474 114.751C9.14842 114.857 9.93383 114.974 10.7075 115.068C11.2702 115.126 11.5281 115.431 11.4929 115.982C11.4577 116.533 11.4226 117.096 11.3405 117.635C11.2467 118.279 10.8013 118.233 10.2972 118.174C7.097 117.729 3.88505 117.307 0.673096 116.885C0.673096 115.372 0.673096 113.872 0.673096 112.36ZM5.56136 112.184C5.56136 112.184 5.5848 112.184 5.59652 112.184C5.56135 111.762 5.57308 111.328 5.49102 110.918C5.38552 110.402 5.03384 110.05 4.48289 109.968C3.94366 109.886 3.60371 110.214 3.38098 110.625C2.91208 111.527 3.05275 112.535 2.95897 113.497C2.93553 113.743 3.16998 113.872 3.3927 113.977C4.78767 114.681 5.50274 114.282 5.57308 112.758C5.57308 112.559 5.57308 112.371 5.57308 112.172L5.56136 112.184Z" fill="#FD0100"/>
<path d="M155.96 129.275C164.916 129.275 173.872 129.275 182.828 129.275C183.719 129.275 184.164 129.728 184.164 130.635C184.164 132.405 184.141 134.175 184.176 135.945C184.188 136.637 183.953 136.836 183.262 136.824C179.944 136.777 176.639 136.789 173.321 136.789C172.172 136.789 171.997 136.988 172.079 138.114C172.102 138.477 172.126 138.829 172.126 139.192C172.126 154.795 172.126 170.386 172.126 185.988C172.126 188.637 171.399 191.029 169.629 193.045C167.917 194.991 165.795 196.069 163.146 195.987C161.317 195.929 159.5 196.128 157.766 195.202C154.448 193.408 152.643 190.56 152.619 186.938C152.514 170.655 152.572 154.361 152.596 138.079C152.596 137.141 152.326 136.754 151.377 136.789C150.334 136.836 149.278 136.836 148.223 136.789C147.356 136.754 147.075 137.106 147.098 137.95C147.157 140.341 147.157 142.732 147.157 145.124C147.157 158.628 147.145 172.132 147.168 185.625C147.168 188.426 146.629 191.041 144.847 193.268C143.464 195.003 141.741 196.023 139.373 196.058C137.017 196.093 134.965 195.659 133.313 193.889C131.367 191.779 130.523 189.224 130.511 186.422C130.476 176.493 130.499 166.564 130.499 156.635C130.499 150.668 130.499 144.702 130.487 138.747C130.487 138.618 130.487 138.489 130.487 138.348C130.581 136.801 130.558 136.766 129.034 136.789C127.908 136.812 127.803 136.918 127.803 138.266C127.803 153.212 127.803 168.158 127.803 183.093C127.803 185.965 127.229 188.696 125.892 191.24C124.896 193.127 123.501 194.663 121.508 195.589C120.934 195.858 120.347 196.046 119.703 195.987C119.539 195.976 119.375 195.964 119.21 195.987C113.408 196.702 110.782 192.775 109.364 188.473C108.813 186.809 108.648 185.074 108.648 183.339C108.648 168.662 108.648 153.974 108.648 139.298C108.648 138.735 108.637 138.184 108.648 137.621C108.648 137.117 108.449 136.801 107.898 136.801C106.82 136.801 105.73 136.801 104.651 136.812C104.03 136.824 103.772 137.129 103.913 137.774C103.995 138.149 103.995 138.559 103.995 138.946C103.995 154.842 104.018 170.737 103.983 186.633C103.983 190.138 102.658 193.08 99.6457 195.108C98.6844 195.753 97.6411 196.105 96.4923 195.987C95.3318 195.87 94.1478 196.234 92.9873 195.776C89.1775 194.276 87.8177 191.111 87.255 187.407C87.173 186.856 87.1964 186.293 87.1964 185.742C87.1964 170.374 87.1964 155.006 87.1964 139.638C87.1964 139.051 87.1964 138.454 87.2785 137.868C87.384 137.152 87.1378 136.801 86.3993 136.812C85.5787 136.812 84.7581 136.812 83.9376 136.812C83.4452 136.812 83.2694 137 83.2928 137.528C83.7031 153.775 83.4101 170.034 83.4452 186.281C83.4452 190.161 81.7689 193.303 78.2053 195.225C78.1232 195.272 78.0412 195.331 77.9474 195.366C71.7814 197.347 65.2754 195.425 64.1384 187.618C63.9743 186.48 63.9743 185.332 63.9743 184.183C63.9743 169.671 63.9743 155.146 63.9743 140.634C63.9743 139.778 63.9743 138.934 64.1032 138.09C64.2556 137.106 64.0094 136.824 63.013 136.824C60.1645 136.824 57.3042 136.789 54.4556 136.859C53.5764 136.883 53.3654 136.566 53.3772 135.804C53.4006 134.069 53.3772 132.335 53.3772 130.588C53.3772 129.404 53.4827 129.298 54.6666 129.287C59.3204 129.287 63.986 129.287 68.6398 129.287C81.429 129.287 94.2182 129.287 107.019 129.298C107.84 129.298 108.273 129.334 108.074 128.197C107.629 125.747 107.687 123.238 107.617 120.753C107.57 119.311 107.476 119.205 106.081 119.463C101.756 120.26 97.4067 120.776 92.999 120.905C87.4778 121.058 82.0854 120.495 76.8338 118.725C71.8283 117.048 67.5262 114.259 63.7984 110.554C61.2312 107.999 59.1446 105.092 57.3511 101.95C56.9642 101.27 57.058 100.801 57.5855 100.227C60.1527 97.4134 63.0247 94.9399 66.1781 92.8182C68.9328 90.966 71.8752 89.4773 74.9934 88.3167C81.0539 86.066 87.3136 85.3275 93.7375 85.5503C95.8124 85.6206 97.8521 85.8433 99.9035 86.0778C101.556 86.2653 101.603 86.2653 101.31 84.6007C100.548 80.3689 100.115 76.102 100.243 71.7998C100.478 63.8286 102.307 56.3145 106.878 49.6092C109.551 45.6822 112.915 42.482 116.702 39.6686C117.417 39.1411 117.921 39.1411 118.671 39.6803C122.411 42.3413 125.752 45.436 128.413 49.1755C131.906 54.0989 134.016 59.6202 134.86 65.5752C135.716 71.624 135.469 77.661 134.391 83.6629C134.192 84.8 134.239 84.9055 135.376 84.8C138.576 84.4952 141.788 84.3194 145 84.4249C151.084 84.6124 157.015 85.6206 162.548 88.2581C167.87 90.7902 172.126 94.5648 175.548 99.371C176.709 101 176.744 102.173 175.689 103.837C174.165 106.217 172.665 108.62 170.684 110.613C168.257 113.063 165.514 115.149 162.408 116.709C157.812 119.018 152.924 120.272 147.825 120.847C145.012 121.163 142.198 121.327 139.385 121.186C135.856 121.022 132.316 120.811 128.811 120.284C128.061 120.167 127.803 120.342 127.85 121.128C128.014 123.613 128.061 126.098 127.955 128.595C127.932 129.099 128.143 129.24 128.565 129.252C128.858 129.252 129.151 129.252 129.456 129.252C138.283 129.252 147.098 129.252 155.925 129.252L155.96 129.275ZM91.1586 107.987C92.155 108.093 93.128 107.858 94.1009 107.835C97.5591 107.764 100.959 107.272 104.299 106.369C105.753 105.971 107.195 105.478 108.391 104.494C109.903 103.239 109.821 102.055 108.25 100.895C107.066 100.016 105.683 99.582 104.311 99.1717C98.6258 97.5071 92.7997 97.4134 86.9502 97.7064C83.9727 97.8588 81.0187 98.316 78.1584 99.1952C76.6228 99.6641 75.0754 100.133 73.8797 101.293C72.7895 102.36 72.8833 103.661 74.1493 104.517C75.134 105.185 76.2008 105.654 77.3261 106.041C81.8275 107.588 86.5048 107.776 91.182 107.987H91.1586ZM143.687 97.4016C139.221 97.2961 134.672 97.765 130.253 99.1366C128.917 99.5468 127.58 100.063 126.502 101.012C125.529 101.868 125.4 102.946 126.244 103.743C126.783 104.259 127.369 104.728 128.061 105.068C129.854 105.924 131.742 106.475 133.676 106.815C137.837 107.542 142.034 107.893 146.278 107.659C149.794 107.471 153.252 107.12 156.664 106.229C158.012 105.877 159.266 105.314 160.462 104.658C162.466 103.568 162.501 101.622 160.567 100.461C159.524 99.8399 158.41 99.3593 157.238 99.0193C152.854 97.7533 148.376 97.3313 143.675 97.4016H143.687ZM112.294 73.4761C112.2 77.2625 112.611 81.0019 113.361 84.6945C113.771 86.7108 114.381 88.6919 115.553 90.4385C117.065 92.7009 118.683 91.6459 119.539 90.1923C120.969 87.7775 121.555 85.0814 121.965 82.3617C122.563 78.4816 122.751 74.5663 122.54 70.6276C122.352 67.146 122.012 63.7113 121.027 60.3587C120.629 58.9989 120.101 57.686 119.269 56.5372C118.249 55.1188 117.007 55.0602 115.834 56.3145C114.932 57.2757 114.533 58.5066 114.135 59.714C112.646 64.1802 112.329 68.8106 112.282 73.4644L112.294 73.4761Z" fill="#FD0100"/>
<path d="M16.4867 84.4484C15.631 84.2374 15.0566 84.6359 14.8221 85.6089C14.7283 86.0192 14.5877 86.4295 14.4118 86.8163C13.7906 88.1878 13.6147 89.4538 14.9394 90.5675C15.4434 90.9895 15.4434 91.5991 15.1621 92.1969C14.5408 93.4864 14.3415 94.8813 14.1422 96.2763C14.0484 96.8859 13.7788 97.2727 13.2044 97.5306C12.2197 97.9643 11.2702 98.4918 10.2973 98.9607C9.84009 99.1835 9.45325 99.4765 9.17191 99.8985C8.49201 100.895 8.70301 101.505 9.82836 101.868C10.5434 102.102 11.2702 102.325 11.997 102.513C12.7004 102.7 12.8996 103.087 12.7707 103.826C12.3839 105.9 12.419 105.877 10.3324 105.244C7.91761 104.517 5.47934 103.861 3.06451 103.157C1.72816 102.771 1.72816 102.747 2.00949 101.399C2.46667 99.2186 2.60734 96.9797 3.32241 94.8579C3.55686 94.1663 3.81475 93.5098 4.42432 93.0409C6.04202 91.7983 8.39823 92.701 8.99607 94.811C9.35947 96.0653 9.34774 96.0536 10.5083 95.444C11.4109 94.9751 12.3252 94.5414 13.2396 94.1077C13.7554 93.8615 13.814 93.5919 13.4506 93.123C11.5164 90.6495 9.60564 88.1527 7.69488 85.6675C7.33148 85.1986 6.93292 84.7649 6.61641 84.2725C5.92479 83.1823 6.76881 82.2563 7.07359 81.3067C7.29632 80.6034 8.08172 80.8965 8.6444 80.9199C11.3874 81.0371 14.1305 81.1661 16.8853 81.295C17.2135 81.3067 17.5417 81.295 17.87 81.3302C18.8312 81.4474 18.9484 81.6467 18.5968 82.5259C18.4795 82.8307 18.3389 83.1355 18.2334 83.4402C17.9676 84.1827 17.3854 84.5187 16.4867 84.4484ZM7.14392 97.6947C7.14392 97.2493 7.15565 97.05 7.14392 96.8624C7.08531 96.2294 6.75708 95.8309 6.10063 95.7957C5.44417 95.7605 5.3035 96.2529 5.198 96.7452C4.99872 97.6713 4.79944 98.5856 4.61188 99.5117C4.42432 100.426 5.15111 100.496 5.72551 100.672C6.3468 100.86 6.73364 100.649 6.8157 99.9689C6.9212 99.1366 7.06187 98.2926 7.14392 97.7064V97.6947ZM9.61736 83.9795C10.4028 84.9173 11.0123 85.6323 11.6102 86.3474C11.8329 86.6053 12.0674 86.6405 12.208 86.3005C12.4542 85.6675 12.8996 84.9876 12.6535 84.3546C12.4542 83.8622 11.7157 84.1436 11.2116 84.0732C10.8013 84.0146 10.3793 84.0264 9.61736 83.9795Z" fill="#FD0100"/>
<path d="M11.5399 125.934C11.7157 127.083 11.5399 127.88 10.6138 128.197C9.40641 128.63 9.39469 129.568 9.4533 130.565C9.47675 131.057 9.54708 131.538 9.5588 132.03C9.57053 133.296 9.8167 134.363 11.3875 134.515C11.915 134.574 12.3253 134.949 12.255 135.523C12.0791 137.071 12.7942 138.442 13.1224 139.896C13.3217 140.763 13.2279 141.467 12.7121 142.205C11.9502 143.307 11.2586 144.456 10.5318 145.581C10.3325 145.886 10.2035 146.214 10.1801 146.589C10.1098 147.879 10.4849 148.195 11.6923 147.773C12.4074 147.527 13.099 147.234 13.8023 146.953C14.4119 146.706 14.6932 146.929 14.8573 147.539C15.3966 149.59 15.42 149.602 13.4038 150.364C10.86 151.313 8.3045 152.251 5.74901 153.189C5.28011 153.365 4.82294 153.482 4.69399 152.802C4.14304 150.118 3.19352 147.492 3.21696 144.714C3.22868 142.967 4.41265 141.595 5.97174 141.384C7.01503 141.244 7.83561 141.607 8.42173 142.475C8.67962 142.861 8.9844 143.096 9.26574 142.486C9.88703 141.138 10.8014 139.978 11.6923 138.794C12.0909 138.255 12.0791 137.985 11.3992 137.739C8.41 136.672 5.4325 135.57 2.43156 134.503C1.52893 134.187 1.15381 133.695 1.02486 132.663C0.837306 131.162 1.43515 130.424 2.64256 129.709C5.03394 128.29 7.37843 126.778 9.65258 125.172C10.1332 124.832 10.7428 124.246 11.2937 124.516C11.8447 124.785 11.4813 125.606 11.5516 125.899L11.5399 125.934ZM8.29278 148.418C8.05833 147.48 7.87077 146.554 7.58943 145.651C7.4136 145.077 7.23776 144.35 6.38202 144.55C5.56145 144.737 5.35045 145.382 5.50284 146.144C5.66695 147 5.87796 147.855 6.05379 148.711C6.13585 149.133 6.1593 149.672 6.76886 149.496C7.36671 149.321 8.17556 149.321 8.29278 148.406V148.418ZM4.31887 132.135C5.20978 132.429 5.93657 132.698 6.68681 132.897C7.01503 132.979 7.53082 133.038 7.43704 132.475C7.33154 131.842 7.6246 131.092 7.01503 130.588C6.95642 130.541 6.75714 130.612 6.65164 130.67C5.93657 131.116 5.13944 131.42 4.33059 132.135H4.31887Z" fill="#FD0100"/>
<path d="M187.388 221.765C185.853 221.8 184.387 221.554 183.121 220.581C182.629 220.194 182.16 219.772 181.984 219.139C181.82 218.565 181.679 217.991 182.207 217.498C182.77 216.971 183.203 217.404 183.707 217.627C185.583 218.483 187.564 218.155 189.51 218.026C189.791 218.002 190.084 217.803 190.12 217.463C190.166 217.053 189.862 216.877 189.545 216.771C188.631 216.455 187.67 216.572 186.72 216.478C185.782 216.385 184.833 216.455 183.895 216.185C182.945 215.904 182.312 215.283 182.137 214.38C181.949 213.442 182.219 212.516 183.039 211.93C183.625 211.508 183.426 211.32 182.969 211.051C182.746 210.922 182.535 210.746 182.359 210.559C181.773 209.972 181.773 209.093 182.336 208.531C182.887 207.968 183.778 207.944 184.376 208.507C184.587 208.706 184.751 208.964 184.903 209.21C185.712 210.523 185.958 210.57 186.966 209.468C187.927 208.402 188.842 207.288 189.78 206.186C189.967 205.963 190.143 205.717 190.377 205.53C191.21 204.861 192.23 204.932 192.827 205.694C193.402 206.421 193.296 207.417 192.441 208.015C191.397 208.753 190.272 209.351 189.182 210.031C188.889 210.207 188.408 210.336 188.514 210.758C188.607 211.133 189.088 210.945 189.393 211.016C190.178 211.18 190.917 211.403 191.526 211.942C192.101 212.458 192.206 213.442 191.772 213.993C191.339 214.532 190.506 214.579 189.815 214.075C189.604 213.923 189.428 213.724 189.24 213.536C188.056 212.293 185.841 212.059 184.399 213.02C183.836 213.395 183.836 213.946 184.399 214.368C184.962 214.779 185.63 214.79 186.286 214.802C187.4 214.826 188.514 214.802 189.615 215.001C191.303 215.318 192.253 216.197 192.464 217.662C192.675 219.069 191.925 220.288 190.518 221.074C189.533 221.625 188.478 221.765 187.388 221.765Z" fill="#FD0100"/>
<path d="M126.033 221.707C121.954 221.707 119.386 218.237 120.57 214.345C120.863 213.395 121.449 212.657 122.211 212.071C122.727 211.684 122.633 211.461 122.141 211.191C121.918 211.063 121.707 210.898 121.52 210.711C120.746 209.996 120.723 209.163 121.426 208.484C122.082 207.851 122.997 207.956 123.642 208.777C123.899 209.105 124.11 209.48 124.345 209.832C124.673 210.324 124.978 210.359 125.447 209.925C126.807 208.671 127.897 207.194 129.092 205.811C129.55 205.283 130.089 204.838 130.874 205.049C131.589 205.248 131.976 205.741 132.082 206.444C132.199 207.253 131.836 207.815 131.132 208.214C129.995 208.87 128.881 209.55 127.768 210.242C127.58 210.359 127.287 210.441 127.299 210.699C127.299 211.039 127.662 211.016 127.897 211.109C130.206 211.977 131.542 213.806 131.601 216.15C131.671 219.35 129.315 221.695 126.045 221.695L126.033 221.707ZM125.752 212.434C125.587 212.434 125.353 212.422 125.13 212.469C123.876 212.797 122.798 213.372 122.387 214.696C122.071 215.693 122.469 216.889 123.395 217.463C124.486 218.143 125.716 218.272 126.982 217.967C129.151 217.44 129.925 215.318 128.518 213.583C127.838 212.751 126.889 212.422 125.752 212.422V212.434Z" fill="#FD0100"/>
<path d="M134.368 8.56904C134.485 6.81067 134.59 5.0523 134.719 3.29394C134.743 2.87193 134.825 2.44992 134.837 2.02791C134.86 1.16045 135.387 1.00806 136.103 1.10184C136.829 1.19562 137.322 1.43007 137.251 2.34442C136.97 5.89632 136.736 9.45994 136.478 13.0118C136.478 13.176 136.501 13.3518 136.442 13.5042C136.243 14.02 136.642 14.8757 135.704 15.0047C134.59 15.1571 133.828 14.6999 133.453 13.7621C132.668 11.781 131.882 9.81162 131.085 7.83052C130.992 7.6078 130.956 7.31474 130.499 7.22096C130.405 8.42837 130.312 9.62406 130.23 10.808C130.159 11.6872 130.077 12.5664 130.042 13.4573C130.007 14.3482 129.409 14.313 128.799 14.2427C128.202 14.1841 127.592 14.1255 127.651 13.258C127.92 9.41305 128.166 5.55637 128.459 1.71141C128.495 1.20734 128.401 0.468828 129.245 0.48055C130.065 0.492273 130.956 0.351603 131.343 1.46524C132.093 3.59872 132.937 5.68532 133.758 7.79536C133.875 8.08842 134.039 8.36976 134.18 8.65109C134.25 8.62765 134.321 8.61593 134.391 8.59248L134.368 8.56904Z" fill="#FD0100"/>
<path d="M230.796 82.8191C230.761 84.4251 230.257 85.4215 229.308 86.1835C228.112 87.133 226.928 87.1095 225.779 86.0076C225.263 85.5153 225.088 85.5622 224.912 86.2186C224.478 87.8832 223.47 89.2899 222.72 90.8138C222.45 91.3531 222.063 91.2944 221.911 90.7904C221.524 89.5009 220.645 88.2818 221.7 86.8165C222.38 85.8787 222.755 84.7182 223.235 83.6514C223.4 83.2997 223.529 82.9129 223.575 82.5378C223.646 81.9751 223.505 81.3186 223.142 80.9904C222.743 80.6387 222.368 81.26 221.981 81.4476C221.278 81.7993 220.598 82.1978 219.918 82.5964C219.437 82.8777 219.109 82.7605 218.922 82.2447C218.793 81.8813 218.711 81.471 218.535 81.1428C218.089 80.334 218.453 79.9119 219.156 79.5251C221.313 78.3529 223.446 77.1455 225.592 75.9498C226.225 75.5981 226.834 75.223 227.456 74.8596C227.772 74.672 228.124 74.6017 228.276 75.0237C229.284 77.7081 230.351 80.3808 230.785 82.8543L230.796 82.8191ZM225.346 79.8533C225.521 80.967 225.861 81.8813 226.283 82.7722C226.518 83.2763 226.705 83.8976 227.456 83.6514C228.171 83.417 228.464 82.8777 228.311 82.1158C228.135 81.178 227.889 80.2753 227.479 79.4079C227.327 79.0914 227.35 78.4584 226.776 78.728C226.201 78.9859 225.428 79.1265 225.334 79.8533H225.346Z" fill="#FD0100"/>
<path d="M25.8295 185.883C27.0721 184.675 28.2795 183.527 29.4518 182.343C30.3427 181.452 30.4482 181.44 31.0578 182.495C31.7845 183.761 31.7845 183.785 30.7647 184.828C28.5492 187.102 26.3336 189.376 24.1298 191.674C23.614 192.213 23.3796 192.295 22.8286 191.592C22.008 190.56 21.9377 189.611 22.3128 188.415C22.9927 186.235 23.5788 184.007 24.1884 181.803C24.2236 181.686 24.1884 181.557 24.1884 181.288C22.7934 182.659 21.4922 183.925 20.2145 185.215C19.4174 186.024 19.4408 185.988 18.714 185.097C18.0224 184.242 18.0576 183.679 18.8664 182.87C21.2109 180.549 23.4616 178.123 25.7475 175.731C26.1578 175.309 26.5329 175.309 26.8728 175.825C27.5293 176.821 28.0099 177.759 27.5293 179.096C26.8377 180.995 26.4157 182.999 25.8882 184.957C25.8178 185.226 25.642 185.508 25.8413 185.883H25.8295Z" fill="#FD0100"/>
<path d="M206.976 192.998C205.769 191.31 204.597 189.704 203.448 188.075C202.979 187.407 203.741 185.813 204.562 185.754C204.96 185.719 205.124 186.07 205.3 186.317C206.976 188.579 208.641 190.853 210.317 193.116C210.704 193.643 211.103 194.159 211.49 194.686C211.888 195.237 211.935 195.777 211.408 196.257C210.868 196.75 210.575 197.629 209.497 197.207C207.879 196.574 206.226 196.046 204.585 195.472C204.163 195.331 203.764 195.085 203.12 195.108C203.952 196.281 204.726 197.359 205.499 198.426C205.945 199.035 206.39 199.633 206.836 200.243C207.269 200.841 206.543 202.587 205.804 202.658C205.206 202.716 204.995 202.154 204.726 201.778C203.319 199.879 201.971 197.957 200.576 196.046C200.002 195.249 199.404 194.464 198.782 193.713C198.29 193.116 198.349 192.647 198.853 192.084C199.966 190.865 200.201 190.783 201.924 191.404C203.284 191.896 204.62 192.412 205.98 192.905C206.25 192.998 206.508 193.186 206.976 192.975V192.998Z" fill="#FD0100"/>
<path d="M211.325 47.6166C211.325 48.3083 211.326 48.9999 210.986 49.6329C210.845 49.8908 210.739 50.1838 210.341 50.0901C209.637 49.9259 208.688 48.613 208.805 47.8862C209.04 46.3858 208.453 45.2721 207.281 44.4047C206.742 43.9944 206.144 43.9006 205.523 44.2054C203.706 45.0963 201.537 48.2145 203.096 50.9575C203.507 51.6726 204.104 52.1532 204.843 52.4814C205.183 52.6338 205.523 52.7042 205.804 52.3173C206.086 51.9305 206.179 51.5671 205.828 51.1685C205.546 50.852 205.3 50.5003 205.007 50.1956C204.667 49.8322 204.632 49.5039 204.937 49.0702C205.898 47.6635 206.039 47.6401 207.117 48.9413C207.762 49.7267 208.383 50.5238 209.051 51.2858C209.462 51.7547 209.52 52.1649 209.11 52.669C208.418 53.5365 207.727 54.4039 207.129 55.3417C206.578 56.2209 205.734 56.0451 204.937 55.7168C200.963 54.0757 199.087 49.6094 200.693 45.6121C201.15 44.475 201.772 43.4552 202.674 42.5994C204.679 40.6652 207.023 40.5949 209.028 42.5174C210.458 43.9006 211.454 45.5183 211.349 47.6284L211.325 47.6166Z" fill="#FD0100"/>
<path d="M115.471 7.24436C115.53 9.42474 115.119 11.3121 113.572 12.836C111.18 15.1805 107.042 14.4419 105.788 11.3238C104.686 8.60417 104.475 5.8025 105.706 3.01256C106.679 0.820466 108.144 -0.0587176 110.805 0.035062C112.517 0.0936742 114.17 1.44176 114.85 3.30562C115.33 4.61854 115.553 5.96662 115.471 7.24436ZM112.869 7.04508C112.845 6.20107 112.798 5.09916 112.282 4.06758C111.778 3.03601 110.911 2.75467 109.844 2.81328C108.824 2.88362 108.273 3.58696 107.945 4.39581C107.265 6.0604 107.371 7.79532 107.886 9.48335C108.238 10.6204 109.352 11.4644 110.325 11.441C111.415 11.4176 112.235 10.6673 112.622 9.36613C112.822 8.69795 112.845 8.01805 112.857 7.05681L112.869 7.04508Z" fill="#FD0100"/>
<path d="M165.924 20.8425C165.924 18.498 166.417 16.6107 167.519 14.8758C169.031 12.5079 171.645 11.9804 173.978 13.5629C176.404 15.204 176.92 17.5954 176.639 20.2916C176.475 21.8624 176.006 23.3629 175.15 24.7109C173.263 27.6884 170.074 27.5947 167.706 25.3557C166.346 24.0779 165.76 22.4368 165.913 20.8542L165.924 20.8425ZM168.41 20.5377C168.433 20.8308 168.445 21.0301 168.468 21.2176C168.656 22.6361 169.558 23.8552 170.555 24.031C171.762 24.242 172.442 23.7849 173.31 22.2023C173.392 22.0617 173.497 21.921 173.544 21.7686C174.06 20.3736 174.517 18.9669 174.001 17.4782C173.661 16.5169 173.052 15.755 171.938 15.6026C170.918 15.4619 170.121 15.8488 169.617 16.7162C168.925 17.9236 168.562 19.2366 168.41 20.526V20.5377Z" fill="#FD0100"/>
<path d="M22.3363 72.433C22.3597 73.3473 22.1604 74.2031 21.8087 75.0236C21.1406 76.5476 20.4255 78.0597 19.7573 79.5837C19.4408 80.2987 19.0422 80.4394 18.3975 79.9471C15.7834 77.9308 13.1576 75.9145 10.5317 73.91C10.0863 73.5701 10.0277 73.1949 10.2621 72.7143C11.0593 71.0732 11.7978 69.3851 12.6652 67.7792C13.7906 65.7043 15.7482 65.0947 17.8348 66.1732C20.3786 67.4861 22.1839 69.3969 22.3245 72.4447L22.3363 72.433ZM15.7248 68.7521C15.1035 68.7873 14.6229 69.1155 14.3298 69.6548C13.9899 70.2526 13.7437 70.8973 13.4037 71.4835C13.1107 71.9992 13.2514 72.3158 13.6851 72.644C14.8104 73.4763 15.9358 74.3203 17.0494 75.1643C19.0422 76.6882 18.5382 76.4186 19.4994 74.5782C20.191 73.2535 20.2614 72.0344 19.1477 70.8973C18.1865 69.9126 17.2135 68.9397 15.7248 68.7287V68.7521Z" fill="#FD0100"/>
<path d="M12.7589 173.023C12.8878 169.788 15.5371 166.412 18.2567 165.896C19.8744 165.591 21.1522 166.095 22.1017 167.443C23.2505 169.096 23.9538 170.984 24.9268 172.73C25.1847 173.187 24.9737 173.527 24.5986 173.832C22.0431 175.93 19.4993 178.04 16.9555 180.139C16.5101 180.514 16.0763 180.76 15.7129 180.022C14.74 178.052 13.5443 176.2 12.923 174.067C12.8058 173.68 12.7354 173.305 12.7589 173.011V173.023ZM15.244 173.07C15.244 174.125 15.7364 175.004 16.1818 175.93C16.4749 176.528 16.7328 176.563 17.2017 176.153C18.1629 175.309 19.1359 174.477 20.1206 173.68C22.5002 171.745 22.1603 172.472 20.7184 169.717C20.2261 168.768 19.4407 168.58 18.4677 169.073C17.612 169.506 16.85 170.093 16.217 170.796C15.6309 171.429 15.1854 172.156 15.244 173.094V173.07Z" fill="#FD0100"/>
<path d="M218.746 184.91C218.699 185.941 217.89 187.712 216.483 189.153C214.584 191.111 211.959 190.83 209.977 188.849C206.801 185.672 206.531 181.44 209.438 178.029C210.986 176.212 213.178 175.825 215.124 177.196C217.409 178.802 218.793 180.983 218.746 184.922V184.91ZM209.884 182.331C209.837 184.464 210.81 185.812 212.24 186.868C213.611 187.887 214.924 187.559 215.757 186.07C217.058 183.738 215.569 180.28 212.967 179.576C212.134 179.353 211.419 179.529 210.833 180.186C210.224 180.866 209.86 181.651 209.895 182.331H209.884Z" fill="#FD0100"/>
<path d="M226.436 100.614C226.752 102.349 227.057 104.095 227.385 105.83C227.514 106.522 227.432 107.026 226.623 107.272C225.791 107.518 225.392 107.389 225.228 106.44C224.783 103.732 224.255 101.024 223.728 98.3278C223.587 97.5775 223.763 97.1907 224.548 96.968C227.479 96.1474 230.409 95.2916 233.317 94.4125C233.985 94.2132 234.243 94.3304 234.36 95.0455C234.829 97.8237 235.333 100.59 235.86 103.357C236.071 104.482 235.227 104.47 234.571 104.658C233.762 104.881 233.75 104.283 233.668 103.755C233.399 102.173 233.129 100.59 232.813 99.0194C232.719 98.5739 232.801 97.8589 231.922 98.0816C231.253 98.2574 230.667 98.3395 230.902 99.3359C231.277 100.895 231.476 102.489 231.793 104.06C231.992 105.033 231.3 105.115 230.667 105.303C229.87 105.525 229.718 105.045 229.601 104.423C229.354 103.04 229.108 101.657 228.815 100.274C228.71 99.7931 228.862 98.9842 227.936 99.2187C227.221 99.4062 226.248 99.4062 226.412 100.614H226.436Z" fill="#FD0100"/>
<path d="M24.5868 64.5554C24.8681 64.4734 24.9619 64.2155 25.1026 64.0045C25.9818 62.6681 26.8609 61.32 27.7401 59.9719C27.9863 59.5968 28.2794 59.0341 28.7834 59.5734C29.2406 60.054 30.2956 60.3939 29.686 61.3552C28.1973 63.6645 26.6382 65.9387 25.126 68.2245C24.7275 68.8224 24.3641 68.7052 23.9538 68.2714C22.9691 67.2164 21.9844 66.1731 21.0114 65.1181C19.6751 63.6762 18.3622 62.2226 17.0024 60.8042C16.4631 60.2533 16.4631 59.7727 16.8617 59.1631C18.2449 57.0999 19.6047 55.0133 20.9763 52.9385C21.2224 52.5634 21.5272 52.2117 21.9961 52.6571C22.5119 53.1495 23.3794 53.5246 22.7815 54.4741C21.9141 55.8574 21.0114 57.2289 20.1323 58.6004C19.6282 59.3858 19.9213 60.2767 20.777 60.6518C21.2342 60.8511 21.3514 60.4877 21.5155 60.2298C22.2657 59.1162 22.9925 57.9908 23.7545 56.8889C24.0124 56.5138 24.1999 55.9042 24.8681 56.2911C25.5246 56.6662 25.97 57.6743 25.6652 58.1667C24.8681 59.4444 24.0827 60.7222 23.2153 61.953C22.805 62.5274 22.7815 62.9143 23.309 63.3714C23.6021 63.6293 23.8365 63.9576 24.0944 64.2389C24.2234 64.3796 24.3523 64.532 24.5868 64.5437V64.5554Z" fill="#FD0100"/>
<path d="M221.465 66.2788C220.715 66.3139 220.012 67.4393 220.352 68.0958C221.043 69.4321 221.782 70.745 222.509 72.0579C222.696 72.3979 222.977 72.7496 222.638 73.1247C222.239 73.5584 221.829 74.0156 221.266 74.1797C220.938 74.2735 220.832 73.8515 220.692 73.5936C220.012 72.3276 219.308 71.0615 218.675 69.7721C218.347 69.1156 218.019 69.0804 217.468 69.5024C216.143 70.534 216.132 70.5575 216.94 72.0462C217.667 73.3943 218.382 74.7658 219.074 76.1373C219.402 76.7704 219.027 77.4503 218.183 77.9074C217.48 78.2943 217.339 77.7082 217.116 77.2979C215.85 74.9417 214.608 72.562 213.318 70.2058C212.967 69.5611 213.33 69.2328 213.74 68.8812C215.604 67.2869 217.491 65.7161 219.355 64.1218C220.023 63.5474 220.668 62.9496 221.336 62.3635C221.782 61.9766 222.122 62.0352 222.415 62.5862C223.669 64.9893 224.959 67.3924 226.213 69.7955C226.518 70.3816 226.037 71.2022 225.158 71.589C224.478 71.8821 224.419 71.2374 224.232 70.8857C223.493 69.5376 222.778 68.1778 222.051 66.818C221.911 66.5718 221.817 66.2553 221.477 66.2436L221.465 66.2788Z" fill="#FD0100"/>
<path d="M194.621 28.3566C194.551 28.5324 194.48 28.7199 194.398 28.8958C194.176 29.3295 193.941 29.7632 193.73 30.2087C192.405 32.858 192.452 32.9986 194.926 34.675C195.442 35.0266 195.746 34.9563 196.016 34.4288C196.461 33.5613 196.93 32.6939 197.376 31.8147C197.704 31.1582 198.044 30.9824 198.7 31.5216C199.966 32.5532 200.002 32.647 199.216 34.1123C197.599 37.1015 195.993 40.1024 194.41 43.1151C194.011 43.8888 193.625 43.9943 193.05 43.3496C192.945 43.2323 192.816 43.1151 192.675 43.0331C191.866 42.5642 191.855 42.0484 192.347 41.2747C193.003 40.2314 193.601 39.1412 194.011 37.9572C194.164 37.5352 194.129 37.2773 193.824 37.0194C193.156 36.445 192.476 35.8706 191.808 35.2962C191.409 34.9563 191.116 35.0501 190.882 35.5072C190.366 36.5271 189.803 37.5352 189.287 38.5551C188.818 39.4812 188.631 39.5398 187.845 38.9185C186.986 38.2386 186.81 37.4219 187.318 36.4685C188.947 33.4089 190.588 30.3494 192.183 27.2781C192.546 26.5747 192.921 26.5044 193.437 27.0319C193.836 27.4422 194.387 27.747 194.598 28.3566H194.621Z" fill="#FD0100"/>
<path d="M87.5365 6.14256C87.6889 6.6818 87.3607 6.88108 86.8449 7.03347C85.5554 7.40859 84.2777 7.80715 82.9999 8.24088C82.1559 8.52222 82.109 8.92078 82.5545 10.2571C82.8007 11.0074 83.2344 10.7612 83.715 10.6088C84.7114 10.2806 85.7195 9.99925 86.7042 9.64757C87.4545 9.38968 87.8765 9.56552 88.0406 10.3861C88.3337 11.8631 88.3219 11.91 86.8566 12.3789C85.954 12.672 85.0748 13.0236 84.1605 13.2933C83.4337 13.5043 83.293 13.938 83.3868 14.6296C83.6681 16.5873 83.7385 16.6459 85.6023 16.0598C86.5401 15.7667 87.4779 15.4619 88.404 15.1454C89.1542 14.8875 89.5528 15.0516 89.6935 15.9074C89.9396 17.4196 89.9279 17.4782 88.4978 17.9236C86.6222 18.5097 84.7466 19.1076 82.8827 19.7289C82.1208 19.9868 81.7222 19.8109 81.5698 18.9786C80.8899 15.3095 80.1866 11.6521 79.4832 7.98299C79.237 6.72869 79.3074 6.63491 80.5382 6.24807C82.3552 5.68539 84.1487 5.07582 85.9657 4.51315C87.1497 4.14975 87.2786 4.24353 87.4662 5.48611C87.4896 5.68539 87.5131 5.87295 87.5365 6.13084V6.14256Z" fill="#FD0100"/>
<path d="M211.56 58.073C211.314 58.0964 211.161 58.284 210.997 58.4481C210.364 59.1163 209.755 59.7962 209.133 60.4644C208.266 61.4022 207.996 61.3904 207.258 60.3706C206.367 59.1397 206.39 59.1632 207.457 58.0261C209.544 55.8223 211.595 53.5716 213.705 51.3795C214.045 51.0278 214.326 50.1603 215.077 50.7933C216.143 51.6842 216.354 52.6572 215.71 53.3606C215.088 54.0405 214.49 54.7321 213.846 55.3885C213.412 55.834 213.365 56.2912 213.705 56.7952C214.174 57.5103 214.655 58.2136 215.112 58.9287C215.463 59.4797 215.827 59.5266 216.284 59.0225C216.87 58.366 217.48 57.733 218.078 57.0648C218.511 56.5725 218.91 56.4553 219.308 57.1C219.496 57.4048 219.742 57.6744 219.953 57.9675C220.305 58.4598 220.27 58.9053 219.824 59.3624C218.359 60.8981 216.929 62.4689 215.475 64.0163C214.561 65.0009 213.623 65.9505 212.732 66.9586C212.275 67.4627 211.935 67.4509 211.583 66.8883C211.548 66.8296 211.513 66.7828 211.478 66.7241C210.434 65.1768 210.434 65.1533 211.747 63.8053C212.275 63.266 212.779 62.7033 213.33 62.1876C213.811 61.7304 213.904 61.2967 213.506 60.734C212.99 60.0189 212.545 59.2569 212.064 58.5067C211.935 58.3191 211.829 58.1081 211.572 58.0613L211.56 58.073Z" fill="#FD0100"/>
<path d="M32.6286 38.1917C33.0857 38.2854 33.2498 38.6019 33.4374 38.9185C33.9415 39.7625 34.469 40.583 34.9848 41.4271C35.2661 41.8842 35.5357 41.896 35.8991 41.4857C36.4735 40.8527 37.0714 40.2431 37.6926 39.6687C38.1615 39.235 38.2202 38.8364 37.8568 38.2972C37.2589 37.4063 36.7197 36.4567 36.1336 35.5541C35.8639 35.1321 35.8757 34.757 36.1805 34.3819C36.5673 33.9012 36.9307 33.3386 37.5989 33.2682C37.9505 33.2331 38.1029 33.6434 38.2788 33.913C39.3924 35.6479 40.4826 37.3945 41.5962 39.1412C42.3816 40.3838 43.2022 41.6029 43.9876 42.8455C44.4331 43.5488 43.4484 45.3424 42.6278 45.3541C42.2644 45.3541 42.1472 45.0376 41.9948 44.8031C41.3852 43.877 40.7757 42.9392 40.2013 41.9897C39.8144 41.345 39.4393 41.3333 38.8883 41.8373C36.7197 43.8536 36.708 43.8419 38.1381 46.3388C38.3374 46.6787 38.5601 46.9952 38.7828 47.3234C39.6034 48.5074 39.3455 49.539 38.0795 50.2423C37.5637 50.5237 37.3527 50.1954 37.1417 49.8555C35.5826 47.4055 34.0235 44.9438 32.4762 42.4821C32.1128 41.896 31.7845 41.2864 31.3508 40.7589C30.8116 40.1259 30.9757 39.6452 31.5384 39.1881C31.9369 38.8716 32.1714 38.3675 32.6403 38.1682L32.6286 38.1917Z" fill="#FD0100"/>
<path d="M35.5358 52.1648C35.231 54.4272 34.0001 56.2794 31.9604 57.5688C31.2805 58.0026 30.4717 58.0495 29.6863 57.7447C28.9712 57.4751 28.1506 57.1234 28.0099 56.3732C27.8693 55.6112 28.6898 55.0954 29.1001 54.4741C29.358 54.099 29.698 54.3686 29.9676 54.521C30.6709 54.9196 31.3743 54.9665 31.9487 54.3569C32.6051 53.6653 33.203 52.8799 33.0154 51.8366C32.8748 51.0746 32.1597 50.8284 31.3977 51.2387C30.5889 51.6725 29.9324 52.3289 29.1236 52.7744C28.0334 53.3722 26.9432 53.6536 25.8999 52.8799C24.7746 52.0476 24.247 50.8284 24.376 49.4452C24.5401 47.4758 25.56 45.9285 27.0604 44.6976C28.2913 43.6895 29.8738 43.8067 30.8937 44.8383C31.2571 45.2134 31.3391 45.5182 31.0109 45.9402C30.7413 46.2684 30.4951 46.6201 30.2489 46.9718C29.9676 47.3938 29.6745 47.5344 29.1939 47.2062C28.4437 46.6904 27.9748 47.2531 27.5293 47.7337C26.9784 48.3198 26.4977 48.9646 26.8377 49.832C27.0018 50.2423 27.33 50.3478 27.7169 50.1017C28.3499 49.7031 28.9829 49.2928 29.5925 48.8591C30.7647 48.0268 32.0073 47.171 33.4609 47.9916C34.9496 48.8356 35.4537 50.3361 35.5709 52.1648H35.5358Z" fill="#FD0100"/>
<path d="M44.5034 28.7434C44.48 26.5631 46.9417 23.8434 49.0986 23.6676C50.095 23.5856 51.4431 24.3592 51.8651 25.2384C52.0175 25.5666 52.0761 25.8831 51.7948 26.141C51.4314 26.481 51.0445 26.7741 50.6694 27.0906C50.1068 27.5595 49.7902 26.9851 49.38 26.7975C48.7118 26.481 48.1725 26.7623 47.6802 27.1843C47.1761 27.6181 46.8831 28.1573 47.012 28.8255C47.0824 29.224 47.3754 29.3178 47.7623 29.2709C48.4187 29.1772 49.0517 29.0365 49.673 28.8138C51.15 28.2863 52.674 27.7822 53.94 29.2006C55.2646 30.6776 55.5225 32.436 54.7606 34.2413C54.0689 35.9058 52.8381 37.1133 51.0914 37.7228C49.802 38.1683 48.4187 37.7814 47.5161 36.7381C46.7072 35.8121 46.7307 35.5659 47.5864 34.6867C48.1725 34.1006 48.6649 33.5262 49.4268 34.5578C49.8254 35.1087 50.4819 35.1322 51.1032 34.7336C51.7596 34.3116 52.2871 33.8075 52.4864 33.0221C52.6271 32.5063 52.5685 32.0374 52.1816 31.6623C51.8182 31.3106 51.3962 31.4161 50.9859 31.5568C50.3646 31.7795 49.7668 32.0374 49.1338 32.2133C46.2852 33.0338 44.5151 31.6975 44.4917 28.7434H44.5034Z" fill="#FD0100"/>
<path d="M6.17096 157.737C6.10063 157.21 6.3468 156.975 6.69847 156.788C9.52358 155.264 12.337 153.751 15.1504 152.216C15.7013 151.911 16.0178 151.958 16.264 152.603C17.0377 154.572 17.0611 154.56 15.209 155.58C14.7752 155.815 14.3884 156.155 13.9429 156.33C12.759 156.764 12.63 156.975 13.1927 158.44C13.4389 159.085 13.6968 159.73 13.8726 160.386C14.0719 161.148 14.3884 161.359 15.1152 160.926C15.9826 160.41 16.9204 159.988 17.8114 159.507C18.2802 159.249 18.5499 159.378 18.6788 159.871C18.6905 159.929 18.7257 159.999 18.7491 160.058C19.4759 162.039 19.4525 162.004 17.5769 163C15.08 164.302 12.6066 165.65 10.1449 167.021C9.54703 167.361 9.28913 167.256 9.08985 166.623C8.32789 164.196 8.23412 164.677 10.2504 163.587C12.3018 162.473 12.3135 162.485 11.4695 160.269C10.9225 158.816 9.96904 158.452 8.60923 159.179C6.86259 160.105 6.65159 160.011 6.25302 158.03C6.22958 157.901 6.19441 157.772 6.19441 157.749L6.17096 157.737Z" fill="#FD0100"/>
<path d="M28.0566 198.098C28.3849 196.996 28.7248 195.835 29.0765 194.675C29.9674 191.732 30.87 188.79 31.7727 185.848C32.1243 184.687 32.265 184.687 33.1207 185.566C33.9296 186.387 34.3516 187.231 33.7655 188.356C33.2497 189.329 33.3317 190.232 34.1758 191.017C34.3399 191.17 34.4454 191.392 34.6095 191.545C35.1136 192.014 35.348 192.811 36.0162 193.022C36.7547 193.256 37.2353 192.553 37.8097 192.201C38.1497 192.002 38.4076 192.084 38.7006 192.307C40.3652 193.585 40.3066 194.171 38.5365 195.226C35.8872 196.796 33.2614 198.414 30.659 200.055C29.9791 200.489 29.5102 200.419 29.0882 199.797C28.7365 199.27 28.1035 198.906 28.0566 198.098ZM31.2569 196.199C31.3155 196.245 31.3741 196.292 31.4327 196.328C32.1243 195.87 32.8277 195.413 33.5193 194.956C33.9296 194.686 33.8827 194.346 33.5779 194.053C33.2028 193.667 32.9918 193.08 32.3471 193.034C32.3002 193.034 32.2064 193.162 32.1829 193.245C31.8664 194.229 31.5617 195.214 31.2451 196.199H31.2569Z" fill="#FD0100"/>
<path d="M225.791 161.066C223.798 160.984 221.805 160.879 219.812 160.797C218.945 160.762 218.664 160.504 218.98 159.671C219.074 159.425 219.144 159.179 219.203 158.921C219.379 158.019 219.777 157.526 220.809 157.737C221.852 157.96 222.497 157.503 222.696 156.424C222.778 156.014 222.931 155.604 223.106 155.217C223.693 153.881 223.798 152.697 222.52 151.618C221.899 151.091 222.227 148.84 222.86 148.371C223.317 148.043 223.505 148.488 223.716 148.734C224.841 150.094 225.943 151.466 227.057 152.849C228.264 154.349 229.46 155.862 230.656 157.386C231.242 158.124 231.054 160.293 230.363 160.914C230.175 161.09 229.952 161.066 229.718 161.066C228.405 161.066 227.104 161.066 225.791 161.066ZM226.4 157.96C226.694 157.89 227.291 158.218 227.467 157.819C227.655 157.386 227.104 157.069 226.811 156.729C226.752 156.659 226.682 156.577 226.611 156.518C226.225 156.202 226.072 155.381 225.545 155.557C225.076 155.709 225.064 156.483 224.865 156.987C224.63 157.597 224.877 157.925 225.521 157.96C225.779 157.972 226.037 157.96 226.412 157.96H226.4Z" fill="#FD0100"/>
<path d="M63.5992 21.0769C63.5992 18.9785 63.6578 16.892 63.5757 14.7936C63.5289 13.4924 64.5722 13.4104 65.3224 13.0118C66.0492 12.625 66.3071 13.2814 66.6119 13.7034C68.8626 16.7513 71.1016 19.8108 73.364 22.8587C73.7274 23.351 73.6688 23.6793 73.1413 23.9489C72.8482 24.1013 72.5786 24.2771 72.2855 24.4412C71.676 24.7812 71.2188 24.6639 70.7733 24.0895C69.4839 22.4249 69.4839 22.507 67.5497 23.3745C66.3188 23.9254 65.8499 24.6639 66.0023 26.012C66.1547 27.3249 65.4279 28.0517 64.1267 28.2393C63.4351 28.3331 63.5992 27.7938 63.5992 27.4539C63.5757 25.3321 63.5992 23.1986 63.5992 21.0769ZM65.8968 17.4429C65.8968 18.5214 65.8968 19.3888 65.8968 20.2446C65.8968 20.5494 65.9671 20.8659 66.3071 20.9479C66.7643 21.0651 67.1042 20.7486 67.4559 20.5142C67.7255 20.3266 67.831 20.0218 67.6552 19.7405C67.1863 19.0254 66.8463 18.1931 65.9085 17.4429H65.8968Z" fill="#FD0100"/>
<path d="M125.928 5.05224C125.822 6.82233 125.951 8.5807 125.705 10.3508C125.377 12.6718 123.829 14.0434 121.579 13.973C118.66 13.891 117.417 12.2967 117.194 10.0226C116.89 7.02161 117.253 4.00894 117.171 0.996276C117.136 -0.363528 118.144 0.0936475 118.835 0.0115904C119.691 -0.0821891 119.82 0.445321 119.75 1.12522C119.468 3.70416 119.679 6.29482 119.621 8.88548C119.621 9.17854 119.668 9.4716 119.75 9.75294C120.043 10.7728 120.77 11.2886 121.696 11.1831C122.622 11.0776 123.149 10.4094 123.267 9.34266C123.548 6.63477 123.384 3.90344 123.431 1.19556C123.431 0.480488 123.606 0.0233129 124.474 0.0233129C125.881 0.0233129 125.963 0.0702026 125.939 1.51206C125.916 2.69603 125.939 3.86827 125.939 5.05224H125.928Z" fill="#FD0100"/>
<path d="M138.529 10.1868C138.763 7.86574 139.021 5.59159 140.709 3.73944C142.69 1.54734 146.195 2.36791 147.52 4.44279C147.977 5.15786 148.399 5.90809 148.458 6.78727C148.505 7.49062 148.27 7.84229 147.45 7.86574C146.5 7.88918 145.914 7.80713 145.691 6.67005C145.527 5.83776 144.847 5.1813 143.827 5.21647C142.855 5.23991 142.21 5.80259 141.882 6.63488C141.225 8.29947 140.955 10.0461 141.284 11.8279C141.46 12.754 141.952 13.4573 142.913 13.727C143.839 13.9966 144.414 13.6801 145.035 12.6016C145.293 12.1562 145.445 11.3825 146.207 11.91C147.614 12.8595 147.954 12.8595 147.391 13.9849C146.535 15.6846 145.34 16.7982 143.323 16.6341C141.143 16.4583 139.83 15.1337 139.056 13.2112C138.67 12.2617 138.517 11.2535 138.529 10.222V10.1868Z" fill="#FD0100"/>
<path d="M223.798 143.717C223.693 141.994 224.009 140.529 224.841 139.227C226.811 136.191 231.347 136.32 233.727 139.45C235.415 141.666 235.333 145.991 233.563 148.136C233.375 148.359 233.176 148.582 232.953 148.77C232.367 149.285 231.676 149.602 230.879 149.473C230.48 149.403 230.492 148.969 230.515 148.652C230.609 147.785 230.105 146.777 231.359 146.202C232.813 145.546 233.164 143.026 232.098 141.724C231.09 140.505 229.695 140.154 228.218 140.177C227.327 140.189 226.623 140.728 226.295 141.631C225.85 142.85 225.838 143.998 226.776 145.03C227.069 145.358 227.655 145.534 227.549 146.085C227.42 146.824 227.104 147.527 226.682 148.148C226.377 148.594 226.049 148.219 225.791 147.984C224.443 146.8 223.54 145.417 223.798 143.694V143.717Z" fill="#FD0100"/>
<path d="M94.0659 7.39689C94.1245 5.55646 94.6169 3.12992 97.1724 1.99284C99.6341 0.890931 101.861 1.61772 102.952 4.13805C103.174 4.65384 103.151 5.08757 102.553 5.34546C102.248 5.47441 101.955 5.61508 101.674 5.79091C101.228 6.08397 100.9 6.03708 100.63 5.54474C100.185 4.71245 99.5872 4.06771 98.5322 4.31388C97.4303 4.57178 96.9731 5.42752 96.7386 6.44737C96.3635 8.10023 96.6917 9.71793 97.2075 11.277C97.5944 12.4375 98.5439 13.0823 99.3762 12.9533C100.513 12.7775 100.806 11.8045 101.17 10.9371C101.322 10.5619 101.17 9.9641 101.709 9.88205C102.319 9.78827 102.952 9.95238 103.514 10.2103C103.831 10.3509 103.831 10.6909 103.796 10.984C103.491 13.5394 101.791 15.8136 98.837 15.6847C97.102 15.6143 95.9415 14.571 95.1444 13.1174C94.2769 11.5584 94.0776 9.83516 94.0659 7.38517V7.39689Z" fill="#FD0100"/>
<path d="M91.5571 216.947C91.5571 217.709 91.4047 218.448 91.1351 219.151C90.6193 220.487 89.7988 221.496 88.2983 221.695C86.5751 221.929 85.5435 220.91 84.7581 219.561C84.4182 218.964 84.172 218.319 83.8437 217.721C83.5507 217.193 83.1404 216.771 82.5191 216.631C82.0854 216.537 81.6517 216.549 81.4172 217.018C81.1945 217.463 81.1945 217.909 81.6048 218.26C81.804 218.436 82.015 218.588 82.2143 218.753C83.1404 219.503 83.3162 220.405 82.6598 221.109C81.9213 221.906 80.6435 221.953 79.9753 221.074C79.061 219.866 78.9438 218.46 79.4127 217.053C79.7995 215.881 80.6787 215.248 81.9447 215.025C83.5624 214.743 84.3713 215.775 85.1801 216.795C85.778 217.557 86.5165 217.92 87.4425 217.979C88.8258 218.073 89.8456 217.311 89.9629 216.08C90.0918 214.767 89.1892 213.653 87.8528 213.477C87.6301 213.442 87.3957 213.454 87.1729 213.407C86.411 213.278 86.0241 212.833 86.0358 212.059C86.0358 211.238 86.5399 210.899 87.2667 210.816C88.5913 210.652 89.8456 211.356 90.5607 212.68C91.2758 214.005 91.5454 215.447 91.5688 216.936L91.5571 216.947Z" fill="#FD0100"/>
<path d="M175.548 29.3179C175.666 29.0014 175.83 28.5677 175.994 28.1457C177.225 24.9337 178.467 21.7218 179.663 18.4981C179.944 17.7479 180.249 17.5955 180.952 18.0409C182.711 19.178 184.504 20.2682 186.274 21.3935C186.849 21.7569 186.767 22.5658 186.157 23.5505C185.735 24.2304 185.325 23.8318 184.926 23.5739C184.035 23.023 183.156 22.4486 182.277 21.8742C181.714 21.499 181.328 21.5694 181.081 22.2493C180.566 23.6794 180.237 23.7498 181.75 24.5703C182.324 24.8868 182.875 25.2502 183.438 25.5785C184.329 26.0942 184.352 27.7588 183.473 28.2746C183.156 28.4622 182.898 28.2746 182.652 28.1339C181.89 27.6768 181.14 27.2196 180.39 26.739C179.768 26.3404 179.37 26.4694 179.124 27.1727C178.76 28.1926 178.385 29.2124 177.987 30.2088C177.588 31.2052 177.377 31.2638 176.498 30.6074C176.088 30.3026 175.396 30.1737 175.548 29.2945V29.3179Z" fill="#FD0100"/>
<path d="M55.6163 21.8388C55.0536 22.0029 54.6433 22.3898 54.151 22.6594C53.7524 22.8704 53.3304 23.351 52.8732 22.7649C52.2402 21.956 52.1699 20.9362 52.756 20.5025C53.2601 20.1391 53.7993 19.8343 54.3385 19.5061C55.9328 18.5331 57.5388 17.5836 59.0978 16.5637C59.7895 16.1183 60.1294 16.2589 60.4108 16.9857C60.95 18.3221 60.9383 18.4041 59.7309 19.2013C58.6993 19.889 58.4101 20.8229 58.8634 22.0029C59.7777 24.3826 60.6921 26.774 61.6064 29.1536C61.7471 29.5053 62.005 29.9039 61.6064 30.2321C61.0789 30.6658 60.5749 31.2402 59.8481 31.1933C59.4143 31.1699 59.344 30.6424 59.2033 30.2907C58.2187 27.7235 57.234 25.1563 56.2376 22.5891C56.1203 22.2726 56.0852 21.8505 55.6046 21.8271L55.6163 21.8388Z" fill="#FD0100"/>
<path d="M77.8536 9.3663C77.9591 9.95242 77.4902 10.1048 77.0682 10.3041C75.1574 11.2302 75.1457 11.2302 75.6849 13.2699C76.3296 15.673 77.0095 18.0644 77.6543 20.4675C77.9473 21.5342 76.9627 22.6361 75.849 22.5189C75.3684 22.4603 75.3801 22.0148 75.2864 21.6983C74.5361 18.9904 73.7976 16.2825 73.0591 13.5629C72.7074 12.2617 72.7191 12.2617 71.5117 12.7658C71.4531 12.7893 71.3945 12.8127 71.3359 12.8479C69.7651 13.4926 69.2962 13.1878 69.2141 11.4412C69.1907 11.0426 69.3782 10.8316 69.7065 10.6909C72.051 9.67108 74.3837 8.65123 76.7282 7.63138C77.115 7.46727 77.3495 7.54932 77.4902 7.94789C77.6543 8.40506 77.8536 8.86224 77.8536 9.38975V9.3663Z" fill="#FD0100"/>
<path d="M217.597 163.165C217.949 163.176 218.136 163.387 218.347 163.528C220.305 164.899 222.274 166.248 224.209 167.654C224.935 168.182 225.299 168.018 225.58 167.244C225.744 166.787 225.932 166.318 226.178 165.896C226.389 165.544 226.319 164.794 227.139 165.169C228.112 165.615 228.511 166.201 228.194 166.927C227.233 169.155 226.248 171.359 225.275 173.586C225.064 174.066 224.877 174.559 224.666 175.039C224.431 175.555 224.115 175.696 223.575 175.368C222.415 174.664 222.368 174.582 222.896 173.316C223.88 171.007 223.869 171.019 221.817 169.588C220.223 168.487 218.664 167.349 217.07 166.259C216.472 165.849 216.331 165.404 216.683 164.771C216.917 164.337 217.07 163.868 217.281 163.434C217.339 163.305 217.515 163.235 217.597 163.165Z" fill="#FD0100"/>
<path d="M152.631 18.2987C152.795 17.607 153.006 16.7865 153.206 15.9542C153.909 13.0001 154.612 10.0343 155.327 7.08029C155.456 6.5645 155.468 5.93149 156.359 6.18938C157.789 6.59967 158.047 6.82239 157.824 7.73674C157.168 10.4681 156.488 13.1994 155.843 15.9425C155.515 17.3374 155.55 17.3374 156.863 17.8532C157.812 18.2166 158.762 18.5683 159.7 18.9668C160.497 19.3068 160.591 19.9281 160.122 21.1121C159.805 21.9326 159.313 21.6278 158.774 21.4168C157.004 20.7135 155.233 20.0453 153.463 19.3537C153.041 19.1896 152.561 19.0606 152.608 18.2987H152.631Z" fill="#FD0100"/>
<path d="M148.657 16.8919C149.056 14.4654 149.49 11.9216 149.9 9.36613C150.099 8.11183 150.287 6.84581 150.474 5.57978C150.556 5.02883 150.662 4.53649 151.412 4.60682C152.643 4.72404 153.194 5.09916 153.065 5.89629C152.619 8.74484 152.139 11.5817 151.67 14.4302C151.518 15.4032 151.389 16.3762 151.213 17.3374C151.119 17.8532 151.166 18.5214 150.275 18.3807C148.95 18.1814 148.622 17.9352 148.657 16.8919Z" fill="#FD0100"/>
<path d="M203.788 37.1132C203.682 37.3242 203.577 37.5587 203.448 37.7814C201.537 40.7823 199.603 43.7833 197.704 46.7959C197.27 47.4758 196.907 47.6048 196.403 46.9014C196.239 46.667 195.981 46.4912 195.77 46.2919C195.277 45.8582 195.336 45.4127 195.664 44.8969C197.329 42.318 198.982 39.7156 200.634 37.1249C200.763 36.9374 200.869 36.7381 200.986 36.5388C201.279 36.0465 201.502 35.2376 202.1 35.2962C202.862 35.3666 203.19 36.2457 203.706 36.785C203.764 36.8436 203.764 36.9608 203.8 37.1015L203.788 37.1132Z" fill="#FD0100"/>
<path d="M223.177 177.618C223.001 178.416 222.532 179.095 222.016 179.717C221.77 180.01 221.43 179.588 221.196 179.389C219.391 177.923 217.609 176.434 215.815 174.957C215.088 174.348 214.373 173.727 213.611 173.152C213.025 172.707 212.943 172.238 213.318 171.64C213.494 171.359 213.635 171.066 213.775 170.773C214.104 170.069 214.514 170.081 215.077 170.55C217.597 172.648 220.129 174.711 222.661 176.798C222.919 177.009 223.177 177.22 223.177 177.618Z" fill="#FD0100"/>
<path d="M80.2568 208.202C80.7257 208.202 81.0656 208.589 81.3587 209.046C82.4372 210.711 82.3199 210.91 83.8673 209.246C84.8637 208.167 85.8015 207.03 86.7627 205.916C87.3137 205.283 88.0053 205.061 88.7907 205.33C89.4589 205.565 89.7168 206.139 89.7637 206.796C89.8106 207.593 89.2831 208.026 88.6735 208.402C87.091 209.386 85.5319 210.394 83.9376 211.367C83.375 211.707 82.9764 212.469 82.1675 212.223C81.0422 211.895 79.8934 211.555 79.0494 210.664C78.6156 210.207 78.3812 209.679 78.686 209.058C78.979 208.472 79.5066 208.249 80.2685 208.202H80.2568Z" fill="#FD0100"/>
<path d="M56.2141 217.182C56.0383 216.807 55.7804 216.478 55.3232 216.549C54.9246 216.619 54.8777 216.983 54.8895 217.322C54.8895 217.569 54.8309 217.768 54.6433 217.932C53.8227 218.694 51.4431 218.307 50.8569 217.322C50.3177 216.408 50.1419 216.396 49.4737 217.205C48.7 218.166 47.1527 218.553 45.9921 218.12C45.6756 218.002 45.4881 217.815 45.4646 217.487C45.4412 217.17 45.6522 216.994 45.9101 216.912C46.4376 216.736 46.9768 216.572 47.516 216.455C48.0904 216.326 48.7 216.244 49.1572 215.845C49.6144 215.435 49.9543 215.517 50.4467 215.834C51.912 216.771 54.4323 216.936 55.5225 214.708C56.2844 213.161 56.5072 211.532 55.8155 209.867C55.0419 207.991 53.2014 206.972 51.2203 207.358C49.8605 207.628 48.9462 208.8 49.0751 210.113C49.1924 211.344 50.2239 212.223 51.5955 212.282C52.9084 212.34 53.8931 211.86 54.444 210.336C54.8895 211.508 54.8074 212.387 54.1627 213.149C53.5062 213.935 52.6153 213.946 51.7244 213.724C50.8687 213.513 50.1888 213.009 49.6495 212.305C48.489 210.781 46.9299 210.746 45.3005 211.215C44.2338 211.52 43.6359 212.352 43.378 213.407C43.1905 214.204 43.7766 215.001 44.5854 215.142C45.4177 215.283 45.8515 214.955 46.039 214.005C46.0859 213.782 46.168 213.56 46.2031 213.337C46.3438 212.61 46.8713 212.469 47.4574 212.587C48.0318 212.704 48.5125 213.02 48.5711 213.677C48.6297 214.322 48.2663 214.755 47.6802 214.931C46.8361 215.177 45.957 215.33 45.1129 215.576C44.2807 215.822 43.7063 216.361 43.4718 217.24C43.0146 218.952 43.4835 220.347 44.8433 221.179C46.3204 222.07 48.1491 221.918 49.3682 220.734C49.8254 220.288 50.0833 220.136 50.5991 220.734C51.7596 222.082 53.6821 222.234 55.1474 221.191C56.261 220.405 56.7768 218.436 56.1907 217.194L56.2141 217.182ZM51.6424 210.863C50.9859 210.863 50.4467 210.324 50.4467 209.668C50.4467 209.011 50.9859 208.472 51.6424 208.472C52.2988 208.472 52.838 209.011 52.838 209.668C52.838 210.324 52.2988 210.863 51.6424 210.863Z" fill="#FD0100"/>
<path d="M77.7834 225.012C76.8456 225.047 76.8691 224.555 77.0918 223.887C77.2207 223.488 77.1738 223.09 76.7987 222.82C76.4236 222.562 76.0016 222.515 75.5796 222.715C74.9349 223.019 74.97 223.559 75.1107 224.145C75.1693 224.379 75.3569 224.707 75.0286 224.836C74.6652 224.977 74.5246 224.637 74.3956 224.367C74.3018 224.156 74.2315 223.934 74.126 223.734C73.5164 222.621 71.9456 222.058 70.9023 222.738C70.1169 223.254 69.6011 223.23 68.8509 222.691C68.0186 222.105 66.5299 222.398 65.9437 223.078C65.3928 223.711 65.3576 224.954 65.8734 225.645C66.061 225.891 66.272 226.114 66.6002 226.032C66.9167 225.962 66.9753 225.704 66.9401 225.423C66.8581 224.872 66.9753 224.414 67.5849 224.297C68.1945 224.18 68.7337 224.274 69.0971 224.907C69.6246 225.833 69.8121 225.845 70.4452 225.024C70.9844 224.309 71.7112 224.403 72.4145 224.532C73.0241 224.649 73.3054 225.176 73.4344 225.739C73.5164 226.091 73.5047 226.489 73.1999 226.747C72.9186 226.993 72.649 226.712 72.3911 226.606C70.8437 225.985 69.2495 225.985 67.6552 226.313C66.7174 226.513 66.061 227.134 65.9437 228.119C65.8148 229.092 66.3892 229.725 67.2098 230.147C69.144 231.143 71.0078 230.92 72.8131 229.807C73.0475 229.666 73.2234 229.256 73.5399 229.455C73.8212 229.631 73.6806 229.994 73.6923 230.276C73.704 230.709 73.6923 231.131 73.9267 231.518H75.4975C75.9664 230.287 75.4975 229.256 74.7356 228.341C74.2901 227.814 74.4542 227.31 74.6418 226.782C74.8528 226.231 75.3217 226.255 75.7906 226.243C76.4471 226.243 77.1035 226.243 77.76 226.231C78.1116 226.231 78.4281 226.102 78.4633 225.692C78.4985 225.247 78.2289 224.989 77.8186 225L77.7834 225.012ZM69.7066 228.623C68.2413 228.623 67.0691 228.306 67.0691 227.908C67.0691 227.509 68.2531 227.193 69.7066 227.193C71.1602 227.193 72.3442 227.509 72.3442 227.908C72.3442 228.306 71.1602 228.623 69.7066 228.623Z" fill="#FD0100"/>
<path d="M180.191 212.375C179.745 211.133 178.62 210.347 177.143 210.324C175.08 210.289 173.016 210.324 170.942 210.324C169.91 210.324 168.89 210.324 167.812 210.324C167.812 210.254 167.788 209.984 167.777 209.726C167.659 206.772 165.104 205.166 162.384 206.35C161.2 206.866 160.509 208.144 160.802 209.304C161.095 210.488 162.103 211.145 163.498 211.063C164.858 210.981 165.538 210.265 165.69 208.812C165.702 208.648 165.807 208.484 165.877 208.284C167.061 209.632 166.639 211.461 165.057 211.965C164.049 212.293 163.052 212.282 162.22 211.473C161.822 211.086 161.282 210.875 161.001 211.449C160.86 211.719 161.189 212.293 161.411 212.657C161.552 212.868 161.915 212.95 162.185 213.044C164.33 213.7 166.182 213.372 167.343 211.602C167.941 211.989 168.456 212.305 168.96 212.645C169.687 213.137 170.508 213.536 171.106 214.146C172.161 215.224 172.219 217.064 171.375 217.908C170.074 219.21 166.897 218.788 165.971 217.193C165.268 215.963 164.084 215.447 162.642 215.728C161.4 215.974 160.368 217.088 160.251 218.284C160.098 219.831 160.849 221.202 162.126 221.753C163.263 222.246 164.764 221.894 165.631 220.921C165.842 220.687 166.03 220.441 166.264 220.171C166.452 220.382 166.569 220.534 166.698 220.675C168.632 222.785 171.727 222.304 172.7 219.608C173.087 218.53 173.134 217.205 172.946 216.056C172.747 214.861 172.067 213.747 171.61 212.622H174.716C174.634 212.973 174.552 213.219 174.505 213.466C174.247 214.814 174.81 216.021 175.994 216.713C176.932 217.252 178.397 217.1 179.229 216.385C180.226 215.517 180.648 213.724 180.179 212.399L180.191 212.375ZM163.545 209.644C162.912 209.644 162.408 209.14 162.408 208.507C162.408 207.874 162.912 207.37 163.545 207.37C163.662 207.37 163.756 207.405 163.861 207.429C163.885 207.405 163.896 207.393 163.908 207.37C163.932 207.405 163.955 207.429 163.978 207.452C164.389 207.628 164.682 208.026 164.682 208.507C164.682 209.14 164.178 209.644 163.545 209.644ZM163.392 219.221C162.455 219.221 161.716 218.67 161.704 217.944C161.693 217.252 162.478 216.642 163.381 216.642C164.283 216.642 165.033 217.229 165.057 217.944C165.08 218.694 164.4 219.21 163.404 219.21L163.392 219.221ZM177.436 214.954C176.486 214.954 175.713 214.31 175.713 213.513C175.713 212.715 176.486 212.071 177.436 212.071C178.385 212.071 179.159 212.715 179.159 213.513C179.159 214.31 178.385 214.954 177.436 214.954Z" fill="#FD0100"/>
<path d="M158.797 211.379C158.07 210.019 156.84 209.714 155.48 209.691C153.217 209.656 150.955 209.691 148.692 209.691C146.395 209.691 144.097 209.691 141.8 209.691C140.663 209.691 140.053 210.172 140.076 210.98C140.1 211.871 140.616 212.282 141.776 212.293C143.312 212.305 144.859 212.27 146.395 212.305C148.423 212.364 150.052 213.583 150.439 215.271C150.662 216.267 150.146 217.439 149.337 217.779C147.954 218.366 146.102 217.803 145.281 216.549C144.343 215.118 142.245 214.603 140.792 215.482C139.666 216.162 139.174 217.193 139.279 218.471C139.397 219.854 140.088 220.862 141.46 221.343C142.761 221.8 143.957 221.589 144.894 220.616C145.375 220.1 145.539 220.147 145.985 220.64C147.626 222.433 150.404 222.023 151.494 219.843C152.526 217.791 152.268 215.728 151.377 213.688C151.201 213.278 150.591 212.915 150.885 212.504C151.201 212.059 151.858 212.328 152.373 212.317C153.381 212.317 152.959 213.044 152.936 213.524C152.866 214.837 153.698 216.209 154.882 216.642C156.101 217.088 157.801 216.677 158.434 215.669C159.278 214.333 159.606 212.915 158.785 211.391L158.797 211.379ZM142.597 218.635C141.952 218.553 141.284 218.377 141.284 217.533C141.284 216.783 141.858 216.49 142.538 216.443C143.288 216.396 143.98 216.959 143.992 217.604C143.992 218.119 143.347 218.612 142.597 218.635ZM156.019 214.567C155.234 214.567 154.601 213.981 154.601 213.266C154.601 212.551 155.234 211.965 156.019 211.965C156.429 211.965 156.804 212.129 157.062 212.399C157.273 212.528 157.426 212.739 157.437 213.079C157.437 213.126 157.437 213.172 157.437 213.219C157.437 213.243 157.449 213.255 157.449 213.278C157.449 213.993 156.816 214.579 156.031 214.579L156.019 214.567Z" fill="#FD0100"/>
<path d="M137.122 220.276C136.032 218.952 135.024 217.533 134.11 216.068C133.559 215.189 133.477 214.146 133.875 213.137C134.11 212.54 134.602 212.282 135.223 212.446C135.845 212.61 136.114 213.067 136.02 213.712C135.997 213.899 135.868 214.169 135.938 214.274C136.22 214.661 136.513 215.189 136.9 215.294C137.157 215.365 137.767 214.884 137.908 214.532C138.377 213.325 137.767 211.93 136.607 211.379C135.704 210.945 134.766 210.875 133.899 211.473C132.832 212.211 132.375 213.255 132.539 214.532C132.762 216.326 133.781 217.721 134.86 219.104C135.716 220.206 136.618 221.32 137.216 222.574C138.154 224.543 137.064 226.524 134.93 227.017C134.461 227.122 133.957 227.087 133.395 227.122C132.937 227.087 132.41 227.099 131.906 226.982C131.683 226.935 131.355 226.63 131.355 226.454C131.355 226.243 131.636 225.927 131.859 225.856C132.445 225.669 133.078 225.61 133.676 225.446C135.165 225.036 135.716 223.336 134.754 222.164C133.676 220.851 130.675 221.144 129.972 222.691C129.772 223.125 129.843 223.793 130.03 224.239C130.124 224.461 130.933 224.625 131.191 224.461C131.589 224.203 131.742 223.617 132.07 223.23C132.105 223.195 132.152 223.148 132.187 223.113C132.316 222.879 132.527 222.691 132.797 222.609C132.89 222.562 132.973 222.539 133.043 222.562C133.066 222.562 133.078 222.562 133.101 222.562C133.688 222.562 134.157 223.031 134.157 223.617C134.157 224.203 133.688 224.672 133.101 224.672C133.019 224.672 132.949 224.649 132.879 224.625C132.539 224.707 132.187 224.743 131.835 224.801C130.886 224.989 130.018 225.305 129.854 226.407C129.69 227.474 130.112 228.365 131.003 228.939C133.148 230.323 137.579 229.994 138.588 226.384C139.232 224.086 138.623 222.093 137.122 220.265V220.276Z" fill="#FD0100"/>
<path d="M119.164 212.082C118.636 210.488 117.499 209.703 115.623 209.679C113.49 209.656 111.368 209.679 109.235 209.679C107.007 209.679 104.78 209.679 102.553 209.679C101.955 209.679 101.439 209.797 101.228 210.453C101.029 211.086 100.994 211.696 101.65 212.106C102.061 212.364 102.084 212.669 101.978 213.102C101.615 214.732 102.236 215.752 103.831 216.232C104.276 216.373 104.722 216.396 105.19 216.42C106.492 216.502 107.816 216.373 109.094 216.736C109.469 216.842 109.938 216.947 109.903 217.451C109.879 217.909 109.422 217.909 109.071 217.991C107.91 218.26 106.714 218.143 105.542 218.143C104.686 218.143 103.877 218.014 103.151 217.44C102.471 216.9 101.697 217.322 101.627 218.202C101.521 219.386 102.143 220.241 103.104 220.781C105.495 222.129 107.969 222.187 110.43 220.956C111.79 220.276 112.376 219.151 112.177 217.545C112.013 216.22 111.134 215.482 109.891 215.142C109.188 214.954 108.484 214.861 107.758 214.896C106.644 214.943 105.53 214.861 104.452 214.556C104.065 214.45 103.713 214.239 103.69 213.771C103.655 213.302 103.971 213.079 104.346 212.903C106.175 212.024 107.828 212.329 109.211 213.771C109.387 213.958 109.598 214.134 109.833 214.251C110.77 214.732 111.685 214.251 111.732 213.243C111.767 212.622 111.884 212.223 112.611 212.293C113.478 212.376 113.009 212.938 112.986 213.313C112.915 214.72 113.408 215.798 114.721 216.455C115.752 216.971 117.065 216.9 117.874 216.244C119.082 215.259 119.656 213.466 119.187 212.094L119.164 212.082ZM116.116 214.556C115.436 214.556 114.885 214.04 114.803 213.372C114.803 213.313 114.768 213.266 114.768 213.208C114.768 213.208 114.768 213.184 114.768 213.173C114.768 213.161 114.768 213.149 114.768 213.126C114.768 212.962 114.803 212.809 114.873 212.692C115.072 212.2 115.553 211.848 116.116 211.848C116.549 211.848 116.913 212.059 117.159 212.376C117.335 212.516 117.452 212.739 117.464 213.044C117.464 213.079 117.464 213.114 117.464 213.149C117.464 213.173 117.464 213.184 117.464 213.208C117.464 213.958 116.854 214.556 116.116 214.556Z" fill="#FD0100"/>
<path d="M77.6896 211.801C77.1269 210.312 75.9312 209.75 74.4425 209.691C73.1296 209.644 71.8167 209.691 70.5037 209.691C69.1557 209.691 67.8193 209.668 66.4712 209.691C65.4396 209.703 64.8887 210.136 64.8652 210.898C64.8418 211.754 65.3459 212.223 66.4009 212.293C67.0573 212.329 67.7021 212.446 68.3116 212.704C68.6281 212.833 68.8978 213.032 68.8509 213.43C68.8157 213.77 68.5344 213.899 68.253 214.005C66.9753 214.485 65.3224 213.935 64.4901 212.61C63.7985 211.496 62.8607 210.969 61.5712 210.945C59.5198 210.91 58.0779 212.024 58.0545 213.7C58.0545 214.31 58.1834 214.849 58.8516 214.99C59.5433 215.142 60.1645 214.99 60.5162 214.298C60.6334 214.075 60.7272 213.806 60.7389 213.559C60.7858 212.915 61.1023 212.61 61.7353 212.598C62.4973 212.598 62.9896 212.938 63.1538 213.688C63.3062 214.345 62.8959 214.685 62.3566 214.849C61.7002 215.048 61.0203 215.177 60.3521 215.341C59.0744 215.658 58.16 216.349 57.9373 217.733C57.7028 219.233 58.3007 220.558 59.5433 221.249C60.8913 222.011 62.7318 221.906 63.7633 220.898C64.3729 220.3 64.7011 220.159 65.3693 220.898C66.4126 222.035 68.3937 222.117 69.6246 221.261C70.8671 220.405 71.3829 218.752 70.8554 217.346C70.7147 216.971 70.5506 216.549 70.1052 216.537C69.5777 216.537 69.5542 217.006 69.4956 217.393C69.4604 217.697 69.4018 217.967 69.1088 218.143C68.2179 218.729 66.014 218.272 65.4514 217.369C64.8887 216.467 64.6894 216.455 64.0916 217.275C63.3765 218.248 61.3485 218.682 60.3404 218.061C59.7777 217.709 59.8129 217.275 60.3755 217.029C60.9617 216.771 61.6181 216.631 62.2511 216.478C62.6966 216.373 63.2007 216.349 63.5406 216.033C64.1736 215.435 64.6073 215.646 65.1935 216.138C66.4243 217.193 67.8779 217.264 69.226 216.49C70.5272 215.74 70.914 214.474 70.5272 213.008C70.4334 212.657 70.41 212.34 70.914 212.329C71.3126 212.329 71.6525 212.399 71.6408 212.891C71.6408 213.091 71.6056 213.278 71.5822 213.477C71.4767 214.614 72.2035 215.939 73.1765 216.408C74.5245 217.053 75.7788 216.912 76.7284 215.998C77.7834 215.001 78.1819 213.196 77.6544 211.813L77.6896 211.801ZM74.7824 214.614C74.0205 214.614 73.4109 214.005 73.4109 213.243C73.4109 213.184 73.4344 213.137 73.4461 213.079C73.4461 213.079 73.4461 213.079 73.4461 213.067C73.4344 212.786 73.5516 212.575 73.7274 212.411C73.9736 212.094 74.3487 211.871 74.7942 211.871C75.3099 211.871 75.7437 212.176 75.9781 212.598C75.9781 212.598 75.9898 212.622 76.0016 212.633C76.025 212.68 76.0485 212.727 76.0719 212.774C76.0953 212.844 76.1188 212.926 76.1188 213.02C76.1305 213.091 76.1657 213.161 76.1657 213.243C76.1657 214.005 75.5561 214.614 74.7942 214.614H74.7824Z" fill="#FD0100"/>
</g>
<defs>
<clipPath id="clip0_39_264">
<rect width="236.184" height="231.53" fill="white" transform="translate(0.673096)"/>
</clipPath>
</defs>
</svg>
