<svg width="214" height="232" viewBox="0 0 214 232" fill="none" xmlns="http://www.w3.org/2000/svg">
<path d="M213.305 148.19C210.705 149.38 208.095 150.56 205.515 151.77C195.525 156.45 185.535 161.15 175.545 165.84C167.735 169.51 159.935 173.2 152.105 176.83C144.125 180.52 136.115 184.16 128.115 187.8C123.775 189.78 119.435 191.75 115.075 193.68C113.525 194.37 111.915 194.93 110.345 195.57C109.925 195.74 109.535 195.66 109.145 195.49C103.825 193.16 98.4953 190.85 93.1953 188.5C86.9853 185.74 80.7852 182.92 74.5853 180.13C68.1953 177.25 61.7952 174.38 55.4053 171.5C47.3153 167.85 39.2253 164.21 31.1353 160.54C24.7453 157.65 18.3752 154.73 11.9952 151.83C8.59525 150.29 5.18525 148.76 1.78525 147.24C0.79525 146.8 0.18525 146.15 0.20525 144.96C0.21525 143.9 0.68525 143.56 1.66525 143.63C4.64525 143.83 7.62525 143.94 10.5953 144.2C15.4253 144.62 20.2353 145.2 25.0653 145.59C30.9753 146.07 36.8153 147.04 42.6753 147.95C47.8853 148.76 53.0053 149.95 58.1053 151.24C64.1852 152.79 69.9053 155.38 75.6253 157.95C83.0752 161.3 90.5853 164.51 97.9253 168.12C101.235 169.75 104.515 171.46 107.755 173.22C108.705 173.74 109.445 173.77 110.395 173.26C116.025 170.25 121.655 167.21 127.355 164.34C133.055 161.47 138.845 158.73 144.825 156.52C151.035 154.22 157.305 152.07 163.765 150.48C170.175 148.9 176.695 147.98 183.205 147.03C187.215 146.44 191.245 145.96 195.325 145.88C198.555 145.82 201.775 145.58 205.005 145.43C207.785 145.3 210.555 145.58 213.325 145.69V148.19H213.305ZM186.705 153.31C185.945 153.11 185.355 152.98 184.735 153.14C183.085 153.56 181.415 153.89 179.795 154.4C169.615 157.6 159.795 161.77 150.075 166.15C141.715 169.91 133.305 173.55 124.915 177.23C119.635 179.55 114.305 181.74 109.025 184.06C108.095 184.47 107.365 184.51 106.445 184.09C101.575 181.87 96.6653 179.75 91.8053 177.51C87.0253 175.31 82.1253 173.35 77.5353 170.73C72.2253 167.69 66.6752 165.18 61.0252 162.88C55.3752 160.58 49.5952 158.65 43.8452 156.63C40.1752 155.34 36.3752 154.43 32.6252 153.38C32.2452 153.27 31.6853 153.01 31.4853 153.42C31.2453 153.92 31.8953 154.04 32.1952 154.26C33.8452 155.49 35.8252 156.08 37.6353 157C41.3353 158.88 45.0452 160.74 48.8153 162.47C56.8452 166.16 64.9352 169.69 72.9453 173.44C77.3453 175.5 81.8153 177.39 86.2453 179.36C92.9153 182.33 99.6852 185.07 106.335 188.07C108.465 189.03 110.085 189.29 112.365 188.05C117.565 185.23 123.065 182.97 128.415 180.4C137.905 175.83 147.535 171.57 157.105 167.16C165.505 163.29 173.925 159.47 182.325 155.6C183.765 154.93 185.315 154.43 186.725 153.3L186.705 153.31Z" fill="#AE0E44"/>
<path d="M55.7052 142.12C60.3952 142.4 65.0052 143.13 69.5052 144.48C75.9352 146.41 81.8952 149.38 87.6952 152.73C93.6252 156.15 99.6752 159.36 105.615 162.75C106.945 163.51 108.025 163.31 109.205 162.64C112.525 160.76 115.825 158.84 119.165 157.01C124.255 154.22 129.085 150.97 134.555 148.91C141.325 146.36 148.205 144.27 155.415 143.45C157.725 143.19 160.055 143.57 162.365 143.22C162.565 143.19 162.795 143.2 162.915 143.42C163.055 143.69 162.885 143.92 162.705 144.08C162.115 144.61 161.415 144.97 160.685 145.28C152.935 148.55 145.245 151.98 137.545 155.37C131.175 158.18 124.685 160.73 118.315 163.53C115.435 164.8 112.425 165.79 109.655 167.31C109.005 167.67 108.385 167.77 107.645 167.46C99.7252 164.06 91.7852 160.68 83.8552 157.31C75.4952 153.77 67.1352 150.23 58.7652 146.72C56.2852 145.68 53.7652 144.73 51.2652 143.74C50.9252 143.61 50.4452 143.54 50.5152 143.06C50.5852 142.57 51.0552 142.45 51.4852 142.45C52.8952 142.45 54.2752 142.03 55.6952 142.14L55.7052 142.12Z" fill="#AE0E44"/>
<path d="M175.355 75.3999C175.175 112.28 145.335 144.1 105.705 143.56C68.5652 143.05 40.0752 113.88 38.2552 78.7899C36.0952 36.8599 69.3652 6.12992 106.795 6.21992C145.125 6.30992 175.675 37.3799 175.345 75.3999H175.355ZM154.485 30.2499C154.575 27.7299 154.565 27.6899 152.635 27.6199C149.595 27.4999 146.845 26.7299 144.615 24.4999C142.815 22.6999 141.735 20.5499 141.205 18.0999C140.995 17.1099 140.565 16.6099 139.475 16.9699C138.845 17.1799 138.185 17.2699 137.535 17.4099C132.425 18.5599 127.635 16.1799 125.425 11.3899C124.655 9.71992 124.675 9.79992 122.975 10.6499C119.775 12.2399 116.455 13.0599 112.895 11.8299C110.825 11.1099 108.975 10.0499 107.355 8.57992C106.585 7.87992 105.885 7.69992 104.985 8.52992C100.945 12.2499 96.3852 13.2899 91.2252 11.0699C88.1952 9.76992 88.8552 9.64992 86.8952 12.2499C84.3152 15.6899 79.2652 18.5899 73.6652 16.8399C72.7352 16.5499 72.6052 17.1099 72.4652 17.7699C71.6652 21.5499 69.4953 24.1899 65.9353 25.6899C64.3153 26.3699 62.6752 26.9099 60.9052 26.9799C59.8752 27.0199 59.2552 27.3999 59.1552 28.6099C58.9952 30.5199 58.6152 32.4099 57.6352 34.0999C55.8952 37.1199 53.5352 39.4199 50.1752 40.5499C49.5352 40.7699 48.8552 40.9499 49.0852 41.8899C49.3552 43.0399 49.2252 44.2099 49.2652 45.3799C49.4252 50.4599 47.0152 54.0299 42.7252 56.4299C41.7452 56.9799 41.6652 57.4999 42.1952 58.4199C45.1252 63.4899 44.4352 69.3199 40.4352 73.6299C39.3052 74.8399 39.3552 74.8799 40.6052 76.0599C42.2652 77.6299 43.4252 79.5099 43.8152 81.8299C44.3252 84.7999 43.7852 87.5299 42.1352 90.0599C41.0452 91.7399 41.1352 91.7299 42.7752 92.8299C48.2152 96.4999 50.0852 100.35 48.3652 106.89C48.0852 107.96 48.1852 108.47 49.3452 108.91C55.1752 111.12 58.0152 114.92 58.0052 120.51C58.0052 121.76 58.4852 122.11 59.5952 122.14C62.7452 122.23 65.4752 123.47 67.9152 125.37C70.0152 127 70.8852 129.3 71.1952 131.87C71.2752 132.54 71.7452 132.62 72.2952 132.56C73.3652 132.44 74.4352 132.32 75.5052 132.2C79.9552 131.72 84.5852 134.07 86.5152 137.78C87.2286 139.153 88.2952 139.49 89.7152 138.79C89.9052 138.7 90.0852 138.6 90.2752 138.51C92.0752 137.7 93.9253 137.22 95.9352 137.47C99.1652 137.87 101.785 139.49 104.175 141.53C105.005 142.24 105.515 142.27 106.365 141.51C110.885 137.46 116.675 136.77 121.555 139.59C123.105 140.49 123.135 140.51 124.175 139.02C126.255 136.06 128.865 133.95 132.505 133.14C134.625 132.66 136.525 133.18 138.475 133.75C139.425 134.03 139.835 133.91 140.045 132.78C140.575 129.96 141.905 127.55 144.195 125.74C146.565 123.87 149.395 123.4 152.255 123.22C153.575 123.14 153.925 122.69 153.925 121.42C153.935 115.62 157.565 111.12 163.215 109.95C164.465 109.69 164.625 109.22 164.355 108.08C162.965 102.12 164.785 97.5699 169.835 94.1499C171.685 92.8899 171.735 92.8699 170.545 90.9499C168.655 87.8999 168.235 84.7899 169.825 81.4599C170.635 79.7599 171.795 78.3899 173.145 77.1499C173.915 76.4399 174.035 75.7899 173.205 75.0799C173.015 74.9199 172.855 74.7299 172.675 74.5499C168.245 69.9099 168.455 64.0299 171.645 58.8299C172.205 57.9199 171.765 57.6799 171.145 57.3199C165.545 54.1399 163.475 49.0599 165.325 42.9599C165.545 42.2199 165.515 41.7799 164.655 41.5999C163.215 41.3099 161.895 40.6599 160.625 39.9799C156.595 37.8199 154.825 34.2299 154.495 30.2799L154.485 30.2499Z" fill="#AE0E44"/>
<path d="M142.485 78.6699C136.565 78.4299 130.255 78.3499 124.025 77.3599C121.205 76.9099 118.405 76.3399 115.575 75.9099C115.225 75.8599 114.715 75.8699 114.695 75.3999C114.675 74.9199 115.195 74.9299 115.535 74.8299C119.505 73.6699 123.625 73.5599 127.695 73.0999C133.915 72.4099 140.145 71.8599 146.415 72.0999C153.175 72.3499 159.865 73.1599 166.515 74.3899C167.525 74.5799 168.515 74.9199 169.505 75.2099C169.765 75.2899 170.155 75.3099 170.105 75.6999C170.075 75.9599 169.755 76.0299 169.525 76.1099C168.445 76.4699 167.305 76.3499 166.205 76.5499C158.485 77.9699 150.675 78.4799 142.475 78.6699H142.485Z" fill="#AE0E44"/>
<path d="M74.4153 19.2098C74.3853 18.8798 74.3553 18.5798 74.5953 18.4498C74.9953 18.2298 75.1953 18.6098 75.4153 18.8298C77.6053 20.9298 79.5153 23.2798 81.3153 25.7298C85.5453 31.4698 88.9553 37.6998 92.1053 44.0898C94.4753 48.9098 96.5853 53.8398 98.7253 58.7498C99.7853 61.1798 100.525 63.7498 101.405 66.2598C101.485 66.4898 101.665 66.7698 101.415 66.9498C101.095 67.1798 100.895 66.8598 100.715 66.6398C99.3053 64.7898 97.8453 62.9798 96.4953 61.0798C92.6353 55.6598 88.8253 50.2098 85.4053 44.5098C81.6353 38.2198 78.2553 31.7398 75.7353 24.8398C75.0653 22.9998 74.7153 21.0698 74.4053 19.2198L74.4153 19.2098Z" fill="#AE0E44"/>
<path d="M63.2052 71.5599C69.5752 71.4899 75.3252 72.0699 81.0952 72.7099C85.5352 73.1999 89.9652 73.8099 94.4052 74.3399C95.3452 74.4499 96.2752 74.6899 97.2052 74.8699C97.4552 74.9199 97.7252 74.9999 97.7252 75.2999C97.7252 75.6199 97.4552 75.7099 97.2152 75.7399C96.2352 75.8899 95.2552 76.0699 94.2652 76.1199C89.0552 76.4099 83.8952 77.1699 78.6952 77.5999C71.8852 78.1499 65.0852 78.5999 58.2452 77.7999C54.3752 77.3499 50.5452 76.7399 46.6952 76.1899C45.4952 76.0199 44.3852 75.5499 43.2452 75.1699C42.8652 75.0399 42.3652 74.9099 42.3852 74.4099C42.4052 73.8899 42.9352 73.8499 43.3152 73.7399C45.7952 73.0299 48.3552 72.7599 50.8952 72.3899C55.1552 71.7599 59.4452 71.3599 63.2052 71.5599Z" fill="#AE0E44"/>
<path d="M99.3252 68.82C97.8052 67.65 96.2452 66.52 94.7552 65.29C90.4652 61.75 86.2052 58.19 82.0552 54.48C75.2852 48.42 69.1352 41.81 64.2152 34.12C63.3852 32.82 62.7852 31.4 62.1352 30.01C62.0052 29.72 61.7052 29.39 62.0752 29.12C62.3852 28.88 62.6952 29.16 62.9852 29.32C66.4352 31.25 69.5852 33.62 72.5752 36.2C80.5952 43.13 87.2752 51.28 93.6052 59.74C95.2452 61.93 96.8752 64.14 98.5052 66.34C99.0052 67.02 99.2452 67.81 99.5752 68.56C99.4952 68.65 99.4052 68.74 99.3252 68.83V68.82Z" fill="#AE0E44"/>
<path d="M103.615 65.5599C103.665 65.7599 103.695 66.0099 103.475 66.0999C103.155 66.2299 103.045 65.9399 102.945 65.7299C102.515 64.8699 102.045 64.0399 101.695 63.1499C99.1752 56.6799 96.5052 50.2699 94.4852 43.6199C92.0452 35.5799 90.1052 27.4099 89.2952 19.0199C89.1152 17.2099 89.2452 15.3599 89.2452 13.5299C89.2452 13.1699 89.2252 12.6999 89.6652 12.5799C90.1152 12.4499 90.3152 12.8999 90.4952 13.1999C91.7652 15.3999 92.9252 17.6599 93.8852 19.9999C97.3852 28.5899 99.5852 37.5499 101.115 46.6699C101.745 50.4399 102.415 54.2099 102.875 57.9999C103.175 60.5099 103.595 63.0199 103.615 65.5599Z" fill="#AE0E44"/>
<path d="M52.6352 42.16C55.6052 43.07 58.8352 44.23 61.9752 45.66C72.8252 50.59 82.4052 57.52 91.7752 64.77C93.7452 66.29 95.6552 67.89 97.5952 69.45C97.7852 69.61 97.9852 69.76 98.1552 69.95C98.3352 70.15 98.6852 70.35 98.4452 70.67C98.2352 70.95 97.8852 70.83 97.6452 70.67C96.0152 69.64 94.1252 69.2 92.3952 68.42C85.5552 65.33 78.7552 62.16 72.2052 58.47C65.0252 54.42 58.1752 49.91 52.4552 43.86C52.1952 43.59 51.9352 43.32 51.7152 43.02C51.5352 42.79 51.4052 42.5 51.6152 42.22C51.7952 41.99 52.0552 42.04 52.6352 42.15V42.16Z" fill="#AE0E44"/>
<path d="M48.9352 91.1698C47.7752 91.1698 46.6152 91.1698 45.4552 91.1698C45.1752 91.1698 44.8052 91.1898 44.7752 90.7998C44.7552 90.5198 45.0652 90.4298 45.2752 90.3098C51.0952 86.9598 57.2252 84.4798 63.7252 82.7398C69.0152 81.3198 74.3652 80.1798 79.7452 79.2398C84.1452 78.4698 88.6052 77.9898 93.0252 77.3498C94.3352 77.1598 95.6152 76.7398 96.9552 76.8598C97.3152 76.8898 97.8152 76.8098 97.9252 77.2298C98.0652 77.7498 97.4952 77.7398 97.1852 77.8698C88.4752 81.5498 79.6552 84.9798 70.5352 87.4698C63.4752 89.3998 56.3452 91.2398 48.9252 91.1798L48.9352 91.1698Z" fill="#AE0E44"/>
<path d="M46.7753 57.3398C50.8253 57.5798 54.8353 58.1998 58.8353 58.9098C66.2053 60.2198 73.2853 62.5098 80.2553 65.2098C83.3853 66.4198 86.5253 67.5998 89.6253 68.8798C92.0353 69.8798 94.3953 70.9998 96.7653 72.0898C97.0353 72.2198 97.4853 72.3598 97.3753 72.7598C97.2653 73.1598 96.8553 73.0598 96.5153 73.0098C90.8853 72.0698 85.2353 71.2298 79.6253 70.1798C74.2553 69.1798 68.8953 68.1098 63.6553 66.4898C57.3853 64.5598 51.2453 62.3098 45.6253 58.8398C45.1653 58.5598 44.3453 58.3398 44.5653 57.6698C44.7453 57.1098 45.5153 57.4098 46.0353 57.3498C46.2853 57.3198 46.5353 57.3498 46.7853 57.3498L46.7753 57.3398Z" fill="#AE0E44"/>
<path d="M101.965 82.1199C101.545 83.3299 101.225 84.3999 100.795 85.4199C96.6453 95.3699 91.9353 105.05 86.4353 114.32C83.3253 119.55 79.7153 124.42 75.3853 128.72C75.1353 128.96 74.9153 129.44 74.4853 129.19C74.0353 128.93 74.2353 128.44 74.3153 128.05C75.1553 124.3 76.5153 120.72 78.0953 117.23C82.6553 107.17 88.8253 98.1099 95.5053 89.3699C97.1653 87.1999 98.6753 84.8999 100.645 82.9699C100.965 82.6599 101.235 82.2699 101.965 82.1299V82.1199Z" fill="#AE0E44"/>
<path d="M110.355 66.9398C110.805 65.6198 111.185 64.2698 111.725 62.9898C113.625 58.4198 115.565 53.8698 117.765 49.4298C120.735 43.3998 124.165 37.6698 127.925 32.1198C130.795 27.8798 134.065 23.9398 137.455 20.1198C137.935 19.5898 138.525 18.5498 139.145 18.9498C139.765 19.3498 138.855 20.1498 138.625 20.7498C135.305 29.3898 131.395 37.7598 126.615 45.6798C122.955 51.7398 118.995 57.5998 114.505 63.0698C113.335 64.4998 111.975 65.7798 110.705 67.1298C110.595 67.0698 110.475 66.9998 110.365 66.9398H110.355Z" fill="#AE0E44"/>
<path d="M103.165 34.0699C103.035 27.9999 103.135 21.9199 104.365 15.9499C104.695 14.3599 105.125 12.7999 105.515 11.2299C105.595 10.9099 105.645 10.4999 106.055 10.4899C106.535 10.4699 106.595 10.9199 106.715 11.2699C107.635 14.1299 108.045 17.0999 108.485 20.0599C109.055 23.9099 109.015 27.7799 109.095 31.6399C109.185 35.7099 108.945 39.7899 108.655 43.8499C108.315 48.6199 108.025 53.3899 107.245 58.1199C106.915 60.1299 106.625 62.1499 106.285 64.1499C106.225 64.5299 106.195 65.1299 105.675 65.0799C105.225 65.0299 105.415 64.4699 105.365 64.1199C104.725 59.8899 104.165 55.6399 103.785 51.3799C103.555 48.8499 103.265 46.3299 103.175 43.7999C103.075 40.5599 103.145 37.3199 103.145 34.0699H103.165Z" fill="#AE0E44"/>
<path d="M151.835 30.6799C151.695 30.9499 151.555 31.2999 151.335 31.5899C146.145 38.4499 140.755 45.1599 134.725 51.2999C130.965 55.1199 126.935 58.6399 122.715 61.9499C119.675 64.3299 116.605 66.6399 113.285 68.6099C112.985 68.7899 112.685 69.2398 112.325 68.8498C112.055 68.5598 112.415 68.2399 112.575 67.9699C114.375 64.8699 116.715 62.1599 118.975 59.3999C122.635 54.9299 126.485 50.6299 130.655 46.6299C136.325 41.1899 142.325 36.1499 148.905 31.8399C149.635 31.3599 150.305 30.8099 151.025 30.3099C151.385 30.0599 151.715 29.9899 151.825 30.6799H151.835Z" fill="#AE0E44"/>
<path d="M88.8053 135.93C88.5953 134.44 88.9153 133.14 89.0253 131.84C89.3653 127.9 90.1753 124.02 90.7353 120.11C91.7753 112.81 94.0853 105.87 96.2153 98.8699C97.3053 95.2799 98.7453 91.8499 100.345 88.4599C101.105 86.8499 101.545 85.0899 102.775 83.7299C103.035 83.4499 103.165 82.8399 103.675 83.0899C104.105 83.2999 103.945 83.8299 103.895 84.2299C102.915 92.7499 101.405 101.17 99.2553 109.49C97.5953 115.92 95.3753 122.13 92.7953 128.22C91.8753 130.4 90.9853 132.61 89.7653 134.64C89.5353 135.02 89.4253 135.5 88.7953 135.92L88.8053 135.93Z" fill="#AE0E44"/>
<path d="M122.915 16.1898C122.925 21.0198 121.805 25.6798 120.825 30.3598C119.305 37.6698 116.855 44.6898 114.335 51.6998C112.685 56.2798 110.865 60.7898 108.845 65.2098C108.725 65.4798 108.775 66.0198 108.305 65.8798C107.885 65.7598 108.115 65.3198 108.145 64.9998C108.665 57.8498 110.115 50.8298 111.455 43.8198C112.325 39.2598 113.325 34.7098 114.765 30.2598C116.515 24.8698 118.375 19.5398 121.035 14.5298C121.305 14.0198 121.615 13.5198 121.925 13.0298C122.075 12.7898 122.255 12.4898 122.595 12.5898C122.945 12.6898 122.915 13.0398 122.915 13.3298C122.925 14.2898 122.915 15.2498 122.915 16.1998V16.1898Z" fill="#AE0E44"/>
<path d="M98.9752 78.83C98.6352 79.51 98.0852 79.97 97.5452 80.37C89.2652 86.49 80.9852 92.61 72.0552 97.77C65.6752 101.45 59.1352 104.75 51.9952 106.71C51.7152 106.79 51.4352 106.87 51.1452 106.9C50.9052 106.92 50.6252 106.96 50.5052 106.66C50.4152 106.43 50.5952 106.28 50.7152 106.11C51.3352 105.25 52.2952 104.78 53.0452 104.06C56.4152 100.83 60.2252 98.16 64.1052 95.59C69.3052 92.14 74.8152 89.24 80.4052 86.52C85.1352 84.22 89.9152 81.98 94.8752 80.19C95.7252 79.88 96.5252 79.42 97.3752 79.08C97.8452 78.89 98.3152 78.52 98.9652 78.84L98.9752 78.83Z" fill="#AE0E44"/>
<path d="M61.3253 119.51C60.7153 119.16 60.9953 118.75 61.2253 118.38C62.0553 117.04 62.8753 115.68 63.7553 114.38C68.0553 108.05 73.2953 102.57 78.8953 97.4199C84.2753 92.4699 89.9953 87.9299 95.7353 83.4099C96.7753 82.5899 97.8453 81.8099 98.9153 81.0199C99.1653 80.8399 99.4253 80.3999 99.7353 80.6699C100.105 80.9999 99.7153 81.3699 99.5053 81.6399C97.6153 84.1599 95.7853 86.7399 93.7853 89.1699C88.1553 95.9999 82.3153 102.64 75.8953 108.74C71.6653 112.76 67.1953 116.45 62.0053 119.16C61.7853 119.27 61.5653 119.38 61.3153 119.5L61.3253 119.51Z" fill="#AE0E44"/>
<path d="M114.515 70.7699C114.105 70.7699 113.975 70.5799 114.135 70.2899C114.295 70.0099 114.495 69.7199 114.745 69.5199C120.765 64.6199 127.105 60.1599 133.675 56.0299C140.645 51.6399 148.015 48.0499 155.575 44.8299C157.325 44.0799 159.155 43.5199 160.955 42.8899C161.275 42.7799 161.715 42.4199 161.945 42.8599C162.155 43.2599 161.685 43.5099 161.405 43.7299C158.005 46.3199 154.645 48.9599 151.185 51.4799C145.245 55.8099 139.005 59.6799 132.475 63.0699C126.845 65.9899 121.105 68.6799 115.035 70.5999C114.835 70.6599 114.645 70.7299 114.505 70.7799L114.515 70.7699Z" fill="#AE0E44"/>
<path d="M167.675 58.74C163.805 60.64 159.955 62.28 156.055 63.78C151.215 65.64 146.315 67.32 141.315 68.7C134.675 70.54 127.895 71.67 121.105 72.75C119.185 73.06 117.305 72.75 115.435 73.05C115.225 73.08 114.995 73.09 114.885 72.87C114.735 72.57 114.985 72.4 115.185 72.28C115.715 71.96 116.255 71.62 116.825 71.39C122.195 69.19 127.535 66.94 133.055 65.11C142.535 61.97 152.235 59.89 162.165 58.9C163.885 58.73 165.625 58.6 167.355 58.47C167.415 58.47 167.475 58.56 167.685 58.74H167.675Z" fill="#AE0E44"/>
<path d="M108.035 83.4099C108.605 84.5599 109.145 85.5299 109.575 86.5499C113.785 96.4799 117.415 106.61 120.185 117.03C121.745 122.91 122.705 128.9 122.755 135C122.755 135.35 122.935 135.84 122.455 135.97C121.955 136.11 121.745 135.63 121.525 135.29C119.425 132.07 117.825 128.59 116.435 125.02C112.435 114.72 110.265 103.98 108.705 93.0899C108.315 90.3799 107.725 87.6899 107.725 84.9399C107.725 84.4899 107.635 84.0299 108.045 83.3999L108.035 83.4099Z" fill="#AE0E44"/>
<path d="M137.285 130.45C136.075 129.56 135.365 128.41 134.515 127.43C131.935 124.43 129.735 121.14 127.325 118.01C122.835 112.16 119.495 105.66 115.975 99.2399C114.175 95.9499 112.725 92.5199 111.425 89.0099C110.815 87.3399 109.855 85.7999 109.745 83.9599C109.725 83.5799 109.385 83.0599 109.925 82.8699C110.375 82.7099 110.635 83.1999 110.895 83.5099C116.295 90.1699 121.255 97.1399 125.705 104.49C129.145 110.17 132.025 116.1 134.575 122.21C135.485 124.4 136.445 126.57 137.045 128.87C137.155 129.3 137.425 129.71 137.275 130.46L137.285 130.45Z" fill="#AE0E44"/>
<path d="M106.335 138.6C105.655 138.79 105.565 138.3 105.455 137.88C105.075 136.35 104.685 134.82 104.365 133.27C102.845 125.77 102.595 118.19 102.835 110.58C103.065 103.27 103.815 96.01 104.595 88.75C104.735 87.43 104.925 86.12 105.115 84.81C105.155 84.5 105.025 84.01 105.445 83.98C105.935 83.95 105.925 84.48 105.985 84.82C106.465 87.94 107.035 91.05 107.365 94.18C108.305 102.98 108.975 111.8 108.845 120.65C108.755 126.48 108.275 132.26 106.575 137.87C106.505 138.1 106.425 138.34 106.345 138.6H106.335Z" fill="#AE0E44"/>
<path d="M113.535 79.24C114.745 79.65 115.815 79.96 116.845 80.38C126.825 84.45 136.555 89.07 145.865 94.5C151.125 97.56 156.025 101.14 160.365 105.43C160.615 105.67 161.085 105.9 160.835 106.33C160.575 106.78 160.085 106.59 159.695 106.51C155.935 105.71 152.345 104.37 148.845 102.82C138.745 98.34 129.635 92.25 120.845 85.65C118.655 84 116.345 82.52 114.405 80.57C114.085 80.25 113.695 79.99 113.545 79.25L113.535 79.24Z" fill="#AE0E44"/>
<path d="M167.445 91.9498C165.955 92.1798 164.645 91.8598 163.355 91.7598C159.415 91.4498 155.525 90.6798 151.615 90.1498C144.305 89.1698 137.345 86.9198 130.325 84.8498C126.725 83.7898 123.285 82.3798 119.885 80.7998C118.275 80.0498 116.505 79.6298 115.135 78.4098C114.855 78.1598 114.245 78.0298 114.485 77.5098C114.695 77.0698 115.225 77.2398 115.625 77.2798C124.155 78.1898 132.585 79.6298 140.915 81.7098C147.355 83.3098 153.585 85.4798 159.695 88.0098C161.885 88.9198 164.095 89.7798 166.145 90.9898C166.535 91.2198 167.005 91.3198 167.425 91.9498H167.445Z" fill="#AE0E44"/>
<path d="M151.265 119.57C150.915 120.18 150.505 119.9 150.135 119.68C148.785 118.86 147.425 118.06 146.115 117.18C139.745 112.94 134.225 107.74 129.025 102.18C124.035 96.8399 119.435 91.1599 114.875 85.4599C114.045 84.4299 113.255 83.3599 112.465 82.2999C112.275 82.0499 111.835 81.7899 112.115 81.4799C112.435 81.1099 112.815 81.4999 113.095 81.6999C115.635 83.5699 118.225 85.3799 120.675 87.3599C127.545 92.9299 134.245 98.7099 140.395 105.08C144.445 109.27 148.175 113.71 150.925 118.89C151.045 119.11 151.145 119.33 151.275 119.57H151.265Z" fill="#AE0E44"/>
<path d="M106.755 3C146.395 3 178.645 35.25 178.645 74.89C178.645 114.53 146.395 146.78 106.755 146.78C67.1152 146.78 34.8652 114.53 34.8652 74.89C34.8652 35.25 67.1152 3 106.755 3ZM106.755 0C65.3952 0 31.8652 33.53 31.8652 74.89C31.8652 116.25 65.3952 149.78 106.755 149.78C148.115 149.78 181.645 116.25 181.645 74.89C181.645 33.53 148.115 0 106.755 0Z" fill="#AE0E44"/>
<path d="M26.0753 212.53V210.27H13.3853V208.09H30.9453V210.27H28.8553V224.59H26.0753V214.81H18.7553C18.2753 214.81 17.9253 214.91 17.6853 215.12C17.4453 215.33 17.3253 215.6 17.3253 215.95C17.3253 216.21 17.3653 216.43 17.4453 216.6C17.5253 216.77 17.6453 216.95 17.7853 217.14C18.1653 217.02 18.5153 216.94 18.8453 216.89C19.1753 216.84 19.5753 216.82 20.0553 216.82C20.6653 216.82 21.2253 216.91 21.7353 217.09C22.2453 217.27 22.6753 217.53 23.0253 217.87C23.3753 218.21 23.6553 218.61 23.8553 219.06C24.0553 219.52 24.1553 220.03 24.1553 220.6C24.1553 221.22 24.0353 221.78 23.7953 222.26C23.5553 222.74 23.2253 223.15 22.8153 223.49C22.3953 223.83 21.9153 224.1 21.3653 224.29C20.8153 224.49 20.2153 224.61 19.5753 224.67L22.2353 227.11L20.2153 228.72L17.2853 224.65C16.4953 224.55 15.8253 224.28 15.2753 223.85C14.7253 223.42 14.4453 222.88 14.4453 222.24C14.4453 221.74 14.6053 221.34 14.9153 221.06C15.2253 220.78 15.6553 220.63 16.1953 220.63L17.9653 222.52C18.3553 222.54 18.7553 222.52 19.1553 222.44C19.5553 222.37 19.9253 222.26 20.2653 222.1C20.6053 221.94 20.8753 221.75 21.0753 221.5C21.2853 221.26 21.3853 220.96 21.3853 220.62C21.3853 220.15 21.2453 219.79 20.9553 219.52C20.6653 219.25 20.1553 219.12 19.4153 219.12C18.9753 219.12 18.5753 219.16 18.2253 219.22C17.8753 219.29 17.4853 219.39 17.0753 219.53C16.4153 219.03 15.8453 218.46 15.3553 217.82C14.8653 217.18 14.6153 216.44 14.6153 215.61C14.6153 214.64 14.9353 213.88 15.5653 213.33C16.1953 212.78 17.0353 212.5 18.0853 212.5H26.0653L26.0753 212.53Z" fill="#AE0E44"/>
<path d="M32.5453 210.27H30.4553V208.09H37.3053V210.27H35.2153V224.59H32.5553V210.27H32.5453Z" fill="#AE0E44"/>
<path d="M45.8752 214.68V210.27H36.8152V208.09H50.6352V210.27H48.5452V224.59H45.8852V216.94H41.5452L41.6652 219.15C41.5952 219.24 41.4452 219.34 41.2052 219.45C40.9652 219.56 40.6852 219.62 40.3552 219.62C39.5952 219.62 38.9852 219.35 38.5052 218.82C38.0252 218.28 37.7952 217.6 37.7952 216.77C37.7952 216.15 37.9752 215.65 38.3252 215.27C38.6752 214.89 39.2252 214.7 39.9652 214.7H45.8752V214.68Z" fill="#AE0E44"/>
<path d="M51.2253 219.02V216.27H57.4853V219.02H51.2253Z" fill="#AE0E44"/>
<path d="M60.3653 210.92H58.3253V208.46H65.5953V210.92H63.1853V224.59H60.3753V210.92H60.3653ZM65.3453 201.35C66.6253 201.35 67.8253 201.54 68.9553 201.91C70.0753 202.28 71.1253 202.8 72.0953 203.47C73.0653 204.14 73.9653 204.91 74.7953 205.79C75.6253 206.67 76.3953 207.62 77.1253 208.64H73.9953C73.1753 207.59 72.3253 206.71 71.4453 206.01C70.5653 205.31 69.6553 204.77 68.7253 204.4C67.7853 204.03 66.8153 203.84 65.7953 203.84C64.7153 203.84 63.8753 204.06 63.2853 204.51C62.6953 204.96 62.3953 205.57 62.3953 206.35C62.3953 206.82 62.4653 207.24 62.6153 207.62C62.7653 208 62.9253 208.34 63.1053 208.63H60.3253C60.0953 208.18 59.9053 207.73 59.7753 207.27C59.6353 206.81 59.5653 206.33 59.5653 205.83C59.5653 204.91 59.7953 204.12 60.2453 203.46C60.6953 202.79 61.3553 202.28 62.2153 201.9C63.0753 201.53 64.1253 201.34 65.3553 201.34L65.3453 201.35Z" fill="#AE0E44"/>
<path d="M80.0652 210.92H77.6252V224.59H74.8152V219.64L75.5252 220.5C74.8852 220.97 74.2352 221.34 73.5752 221.62C72.9152 221.9 72.0952 222.04 71.1152 222.04C70.1352 222.04 69.3452 221.86 68.6152 221.5C67.8852 221.14 67.3052 220.62 66.8652 219.94C66.4352 219.27 66.2152 218.44 66.2152 217.48C66.2152 216.01 66.6952 214.86 67.6552 214.03C68.6152 213.2 69.8852 212.78 71.4652 212.78C71.7652 212.78 72.0752 212.78 72.4152 212.81C72.7552 212.84 73.0652 212.85 73.3652 212.89C73.6652 212.93 73.8952 212.97 74.0552 213.02L73.8552 215.54C73.5752 215.47 73.2552 215.41 72.9052 215.37C72.5552 215.33 72.2052 215.31 71.8552 215.31C70.9352 215.31 70.2352 215.5 69.7452 215.88C69.2652 216.26 69.0152 216.79 69.0152 217.46C69.0152 218.22 69.2452 218.76 69.6952 219.08C70.1452 219.4 70.6852 219.56 71.3052 219.56C71.9252 219.56 72.4852 219.45 72.9752 219.24C73.4652 219.02 73.9052 218.73 74.2952 218.37C74.6852 218.01 75.0352 217.63 75.3452 217.23L74.8052 219.2V210.95H65.2252V208.49H80.0552V210.95L80.0652 210.92Z" fill="#AE0E44"/>
<path d="M94.5253 210.92V224.59H91.7153V210.92H79.6953V208.46H96.9353V210.92H94.5253ZM86.0753 218.78C86.0753 218.26 85.9153 217.79 85.5953 217.38C85.2753 216.97 84.7953 216.58 84.1553 216.23C83.5153 215.88 82.7053 215.57 81.7453 215.31L82.6353 213.16H92.6653L92.2952 215.62H88.9653C88.1753 215.62 87.5653 215.6 87.1453 215.55C86.7153 215.51 86.4353 215.46 86.2853 215.41L85.1053 214.66C86.4153 215.2 87.3753 215.81 87.9653 216.51C88.5553 217.21 88.8553 218.05 88.8553 219.01C88.8553 219.72 88.6953 220.34 88.3753 220.88C88.0553 221.42 87.6053 221.84 87.0353 222.14C86.4553 222.44 85.7753 222.62 84.9953 222.67C84.9253 222.67 84.8653 222.7 84.7952 222.75C84.7252 222.8 84.5853 222.83 84.3553 222.83C83.6153 222.83 82.9553 222.78 82.3753 222.69C81.7953 222.6 81.3353 222.4 80.9953 222.11C80.6553 221.82 80.4953 221.4 80.4953 220.86C80.4953 220.36 80.6353 219.97 80.9253 219.71C81.2153 219.44 81.5553 219.31 81.9453 219.31C82.5253 219.31 83.0853 219.5 83.6453 219.88C84.2053 220.26 84.8553 220.93 85.6153 221.88C85.9453 222.09 86.3353 222.3 86.7853 222.52C87.2353 222.74 87.7153 222.94 88.2153 223.14C88.7153 223.34 89.1853 223.51 89.6353 223.65L88.6453 225.8C87.6153 225.38 86.5853 224.85 85.5653 224.19C84.5453 223.53 83.6553 222.88 82.9053 222.24L81.7453 220.29C82.1353 220.5 82.4953 220.62 82.8053 220.67C83.1153 220.71 83.4653 220.68 83.8453 220.58C84.5553 220.58 85.1053 220.41 85.5053 220.07C85.9053 219.73 86.1053 219.31 86.1053 218.79L86.0753 218.78Z" fill="#AE0E44"/>
<path d="M101.425 210.92V224.59H98.6153V210.92H96.5753V208.46H103.845V210.92H101.435H101.425Z" fill="#AE0E44"/>
<path d="M103.495 208.46H118.475V210.92H116.085V224.59H113.275V217.41H109.165V218.34C109.165 218.96 109.035 219.41 108.775 219.69C108.515 219.97 108.155 220.11 107.695 220.11C107.355 220.11 106.985 220 106.585 219.77C106.195 219.55 105.825 219.25 105.485 218.89C105.145 218.53 104.865 218.13 104.645 217.71C104.425 217.29 104.315 216.88 104.315 216.5C104.315 216.07 104.425 215.7 104.645 215.38C104.865 215.06 105.305 214.91 105.965 214.91H113.285V210.91H103.505V208.45L103.495 208.46Z" fill="#AE0E44"/>
<path d="M126.575 210.92H124.535V208.46H131.805V210.92H129.395V224.59H126.585V210.92H126.575ZM131.555 201.35C132.835 201.35 134.035 201.54 135.165 201.91C136.285 202.28 137.335 202.8 138.305 203.47C139.275 204.14 140.175 204.91 141.005 205.79C141.835 206.67 142.605 207.62 143.335 208.64H140.205C139.385 207.59 138.535 206.71 137.655 206.01C136.775 205.31 135.865 204.77 134.935 204.4C133.995 204.03 133.025 203.84 132.005 203.84C130.925 203.84 130.085 204.06 129.495 204.51C128.905 204.96 128.605 205.57 128.605 206.35C128.605 206.82 128.675 207.24 128.825 207.62C128.975 208 129.135 208.34 129.315 208.63H126.535C126.305 208.18 126.115 207.73 125.985 207.27C125.845 206.81 125.775 206.33 125.775 205.83C125.775 204.91 126.005 204.12 126.455 203.46C126.905 202.79 127.565 202.28 128.425 201.9C129.285 201.53 130.335 201.34 131.565 201.34L131.555 201.35Z" fill="#AE0E44"/>
<path d="M146.285 210.92H143.845V224.59H141.035V219.64L141.745 220.5C141.105 220.97 140.455 221.34 139.795 221.62C139.135 221.9 138.315 222.04 137.335 222.04C136.355 222.04 135.565 221.86 134.835 221.5C134.105 221.14 133.525 220.62 133.085 219.94C132.655 219.27 132.435 218.44 132.435 217.48C132.435 216.01 132.915 214.86 133.875 214.03C134.835 213.2 136.105 212.78 137.685 212.78C137.985 212.78 138.295 212.78 138.635 212.81C138.975 212.84 139.285 212.85 139.585 212.89C139.885 212.93 140.115 212.97 140.275 213.02L140.075 215.54C139.795 215.47 139.475 215.41 139.125 215.37C138.775 215.33 138.425 215.31 138.075 215.31C137.155 215.31 136.455 215.5 135.965 215.88C135.485 216.26 135.235 216.79 135.235 217.46C135.235 218.22 135.465 218.76 135.915 219.08C136.365 219.4 136.905 219.56 137.525 219.56C138.145 219.56 138.705 219.45 139.195 219.24C139.685 219.02 140.125 218.73 140.515 218.37C140.905 218.01 141.255 217.63 141.565 217.23L141.025 219.2V210.95H131.445V208.49H146.275V210.95L146.285 210.92Z" fill="#AE0E44"/>
<path d="M159.335 210.92V224.59H156.505V218.57H151.605V219.22C151.605 219.89 151.465 220.37 151.195 220.66C150.925 220.95 150.555 221.09 150.095 221.09C149.755 221.09 149.385 220.98 148.995 220.75C148.605 220.53 148.245 220.23 147.915 219.87C147.575 219.51 147.295 219.11 147.075 218.69C146.855 218.27 146.745 217.87 146.745 217.51C146.745 217.11 146.855 216.78 147.085 216.51C147.315 216.24 147.755 216.11 148.395 216.11H148.785V210.92H145.905V208.46H161.745V210.92H159.335ZM156.505 210.92H151.605V216.11H156.505V210.92Z" fill="#AE0E44"/>
<path d="M155.025 224.59C155.485 224.4 155.955 224.25 156.445 224.15C156.935 224.05 157.405 223.99 157.865 223.99C159.145 223.99 160.145 224.34 160.865 225.05C161.585 225.76 161.945 226.67 161.945 227.8C161.945 228.93 161.555 229.78 160.785 230.48C160.015 231.18 158.915 231.53 157.485 231.53C156.355 231.53 155.335 231.35 154.435 231C153.535 230.65 152.695 230.14 151.935 229.5C151.175 228.86 150.445 228.09 149.755 227.21L151.705 225.73C152.375 226.54 153.015 227.2 153.605 227.71C154.195 228.22 154.795 228.6 155.405 228.84C156.015 229.08 156.675 229.2 157.375 229.2C158.075 229.2 158.565 229.07 158.925 228.81C159.285 228.55 159.465 228.17 159.465 227.67C159.465 227.34 159.385 227.08 159.235 226.88C159.075 226.68 158.875 226.53 158.635 226.44C158.395 226.35 158.115 226.3 157.825 226.3C157.445 226.3 157.095 226.34 156.765 226.42C156.435 226.5 156.125 226.61 155.825 226.77L155.035 224.59H155.025Z" fill="#AE0E44"/>
<path d="M177.415 210.92H173.475V216.39L172.885 216.23C173.295 215.92 173.745 215.67 174.235 215.49C174.725 215.31 175.395 215.22 176.235 215.22H177.665V217.68H176.215C175.705 217.68 175.275 217.72 174.935 217.81C174.595 217.9 174.275 218.03 173.995 218.21C173.715 218.39 173.405 218.64 173.055 218.95L173.475 217.73V224.58H170.665V219.5L171.355 220.36C170.965 220.65 170.555 220.93 170.135 221.19C169.715 221.45 169.265 221.65 168.785 221.8C168.305 221.95 167.745 222.02 167.125 222.02C166.275 222.02 165.485 221.85 164.765 221.5C164.045 221.15 163.465 220.64 163.025 219.96C162.595 219.28 162.375 218.43 162.375 217.41C162.375 216.46 162.595 215.64 163.025 214.95C163.465 214.26 164.065 213.72 164.835 213.34C165.605 212.96 166.495 212.77 167.495 212.77C167.925 212.77 168.365 212.79 168.835 212.84C169.305 212.88 169.665 212.94 169.905 213.01L169.705 215.53C169.455 215.46 169.165 215.4 168.815 215.36C168.465 215.32 168.145 215.3 167.825 215.3C166.985 215.3 166.335 215.49 165.865 215.86C165.395 216.23 165.165 216.75 165.165 217.4C165.165 218.18 165.395 218.73 165.845 219.06C166.295 219.39 166.795 219.55 167.335 219.55C168.185 219.55 168.925 219.31 169.555 218.82C170.175 218.34 170.725 217.8 171.175 217.21L170.655 219.16V210.94H161.365V208.48H177.405V210.94L177.415 210.92Z" fill="#AE0E44"/>
<path d="M188.065 210.92V224.59H185.255V216.55H182.845C181.905 216.55 181.215 216.6 180.755 216.69C180.295 216.79 179.915 216.96 179.625 217.22C179.445 217.38 179.305 217.57 179.215 217.8C179.125 218.03 179.075 218.31 179.075 218.64C179.075 219.09 179.195 219.54 179.435 220C179.675 220.46 180.035 220.93 180.515 221.43C180.995 221.92 181.585 222.45 182.275 223.02L180.455 224.97C179.705 224.3 179.005 223.6 178.365 222.9C177.725 222.2 177.215 221.45 176.835 220.68C176.455 219.91 176.265 219.1 176.265 218.25C176.265 217.63 176.375 217.07 176.595 216.58C176.815 216.09 177.095 215.68 177.445 215.35C177.775 215.04 178.135 214.79 178.545 214.61C178.945 214.43 179.435 214.29 180.005 214.21C180.585 214.12 181.265 214.08 182.075 214.08H185.255V210.91H175.255V208.45H190.475V210.91H188.065V210.92Z" fill="#AE0E44"/>
<path d="M205.625 208.46V210.92H203.215V224.59H200.405V219.14L201.045 219.94C200.665 220.27 200.255 220.56 199.805 220.81C199.355 221.06 198.865 221.25 198.325 221.38C197.795 221.51 197.215 221.57 196.585 221.57C195.515 221.57 194.595 221.31 193.815 220.79C193.035 220.27 192.405 219.56 191.935 218.65C191.455 217.74 191.125 216.7 190.925 215.52C191.895 215.33 192.615 215.03 193.095 214.63C193.575 214.23 193.805 213.65 193.805 212.91C193.805 212.37 193.685 211.88 193.445 211.43C193.205 210.98 192.945 210.61 192.665 210.31L194.385 210.91H190.125V208.45H205.615L205.625 208.46ZM194.665 210.92L195.455 210.17C195.795 210.67 196.075 211.19 196.285 211.73C196.495 212.27 196.595 212.85 196.595 213.47C196.595 214.3 196.375 215.01 195.945 215.61C195.515 216.21 194.855 216.67 193.985 217C194.285 217.69 194.655 218.22 195.105 218.58C195.555 218.94 196.125 219.12 196.815 219.12C197.705 219.12 198.495 218.88 199.195 218.39C199.895 217.9 200.475 217.27 200.935 216.47L200.415 218.57V210.92H194.675H194.665Z" fill="#AE0E44"/>
<path d="M200.505 208.64C200.205 207.48 199.915 206.55 199.615 205.85C199.315 205.15 198.985 204.64 198.605 204.33C198.225 204.02 197.755 203.86 197.205 203.86C196.875 203.86 196.565 203.9 196.285 203.98C195.995 204.06 195.735 204.14 195.505 204.23L194.745 201.82C195.125 201.65 195.505 201.53 195.895 201.46C196.285 201.39 196.725 201.36 197.215 201.36C197.875 201.36 198.475 201.46 199.025 201.67C199.575 201.88 200.075 202.24 200.535 202.76C200.995 203.28 201.435 204.01 201.845 204.96C202.255 205.91 202.655 207.14 203.055 208.64H200.515H200.505Z" fill="#AE0E44"/>
</svg>
